<svg width="22" height="23" viewBox="0 0 22 23" fill="none" xmlns="http://www.w3.org/2000/svg">
<path d="M21.5 11.5C21.5 17.299 16.799 22 11 22C5.20101 22 0.5 17.299 0.5 11.5C0.5 5.70101 5.20101 1 11 1C16.799 1 21.5 5.70101 21.5 11.5ZM19.0938 11.5C19.0938 15.9701 15.4701 19.5938 11 19.5938C6.52995 19.5938 2.90625 15.9701 2.90625 11.5C2.90625 7.02995 6.52995 3.40625 11 3.40625C15.4701 3.40625 19.0938 7.02995 19.0938 11.5ZM11 20.5938C16.0223 20.5938 20.0938 16.5223 20.0938 11.5C20.0938 6.47766 16.0223 2.40625 11 2.40625C5.97766 2.40625 1.90625 6.47766 1.90625 11.5C1.90625 16.5223 5.97766 20.5938 11 20.5938Z" stroke="#1DBE8E"/>
</svg>
