<svg width="31" height="32" viewBox="0 0 31 32" fill="none" xmlns="http://www.w3.org/2000/svg">
<path d="M5.13086 14.8656C5.13086 16.8956 5.63241 18.7824 6.63549 20.5258C7.63857 22.2693 9.01184 23.6664 10.7553 24.7173C11.0896 24.9322 11.3227 25.225 11.4546 25.5957C11.5864 25.9663 11.5563 26.3184 11.3643 26.6518C11.1732 27.01 10.8804 27.2431 10.4859 27.3511C10.0913 27.459 9.71543 27.417 9.35814 27.225C7.13703 25.9353 5.39358 24.1918 4.12778 21.9946C2.86199 19.7974 2.22909 17.421 2.22909 14.8656C2.22909 14.2446 2.26492 13.6413 2.33657 13.0557C2.40821 12.4701 2.51569 11.8792 2.65898 11.2831L2.22909 11.5339C1.89473 11.725 1.53649 11.7727 1.15436 11.6772C0.772236 11.5817 0.485641 11.3667 0.294578 11.0324C0.103515 10.698 0.0619584 10.3335 0.169909 9.939C0.27786 9.54445 0.498538 9.25213 0.831943 9.06202L5.16669 6.55431C5.50105 6.36325 5.8655 6.3217 6.26005 6.42965C6.65459 6.5376 6.94692 6.75827 7.13703 7.09168L9.64473 11.3906C9.8358 11.725 9.87783 12.0894 9.77083 12.484C9.66384 12.8785 9.44268 13.1708 9.10737 13.3609C8.77301 13.552 8.40855 13.594 8.01401 13.487C7.61946 13.38 7.32714 13.1589 7.13703 12.8236L5.919 10.7099C5.65629 11.3787 5.45949 12.0593 5.32861 12.7519C5.19774 13.4445 5.13182 14.1491 5.13086 14.8656ZM16.5947 3.36595C15.5916 3.36595 14.6124 3.49157 13.6571 3.74282C12.7017 3.99407 11.7942 4.35804 10.9344 4.83475C10.5762 5.02581 10.1998 5.09173 9.80523 5.0325C9.41068 4.97327 9.11835 4.77599 8.92825 4.44068C8.7133 4.05855 8.66553 3.67022 8.78495 3.27567C8.90436 2.88112 9.15513 2.57686 9.53726 2.36287C10.612 1.74191 11.7407 1.27619 12.9234 0.965716C14.1061 0.655239 15.3174 0.5 16.5574 0.5C18.4441 0.5 20.2535 0.852512 21.9855 1.55753C23.7175 2.26256 25.2641 3.28331 26.6255 4.6198V4.08243C26.6255 3.67643 26.763 3.33586 27.0382 3.06072C27.3133 2.78559 27.6534 2.64851 28.0584 2.64946C28.4645 2.64946 28.805 2.78703 29.0802 3.06216C29.3553 3.33729 29.4924 3.67738 29.4914 4.08243V9.09784C29.4914 9.50385 29.3539 9.84442 29.0787 10.1196C28.8036 10.3947 28.4635 10.5318 28.0584 10.5308H23.043C22.637 10.5308 22.2965 10.3933 22.0213 10.1181C21.7462 9.84299 21.6091 9.5029 21.6101 9.09784C21.6101 8.69183 21.7476 8.35126 22.0228 8.07613C22.2979 7.801 22.638 7.66391 23.043 7.66487H25.5149C24.4163 6.30354 23.0908 5.24696 21.5384 4.49513C19.986 3.7433 18.3381 3.3669 16.5947 3.36595ZM25.2283 22.3887C26.1359 21.3378 26.8347 20.1795 27.3248 18.9137C27.8148 17.6479 28.0594 16.3224 28.0584 14.9372C28.0584 14.5312 28.1841 14.173 28.4353 13.8625C28.6866 13.552 29.0147 13.3968 29.4198 13.3968C29.8258 13.3968 30.1721 13.552 30.4587 13.8625C30.7453 14.173 30.8886 14.5312 30.8886 14.9372C30.8647 16.4896 30.6139 17.9885 30.1363 19.4339C29.6586 20.8793 28.9541 22.2225 28.0226 23.4634C27.0912 24.7053 25.9864 25.7681 24.7082 26.6518C23.4299 27.5354 22.039 28.1922 20.5353 28.6221L20.8936 28.8371C21.2279 29.0281 21.4429 29.3209 21.5384 29.7155C21.6339 30.11 21.5862 30.474 21.3951 30.8074C21.2041 31.1418 20.9175 31.3567 20.5353 31.4522C20.1532 31.5478 19.795 31.5 19.4606 31.3089L15.09 28.8012C14.7557 28.6102 14.5345 28.3174 14.4266 27.9228C14.3186 27.5283 14.3606 27.1643 14.5527 26.8309L17.0604 22.4961C17.2514 22.1618 17.538 21.9468 17.9202 21.8513C18.3023 21.7558 18.6605 21.8035 18.9949 21.9946C19.3292 22.1857 19.5504 22.4785 19.6584 22.873C19.7663 23.2676 19.7243 23.6315 19.5323 23.9649L18.2068 26.2219C19.5681 26.0308 20.852 25.6067 22.0586 24.9494C23.2651 24.2921 24.3217 23.4386 25.2283 22.3887Z" fill="#81FEB7"/>
</svg>
