<svg width="14" height="14" viewBox="0 0 14 14" fill="none" xmlns="http://www.w3.org/2000/svg">
<path d="M7 10.1281C6.88333 10.1281 6.77396 10.11 6.67187 10.0739C6.56979 10.0377 6.475 9.97558 6.3875 9.8875L3.2375 6.7375C3.0625 6.5625 2.9785 6.35833 2.9855 6.125C2.9925 5.89167 3.0765 5.6875 3.2375 5.5125C3.4125 5.3375 3.62046 5.2465 3.86137 5.2395C4.10229 5.2325 4.30996 5.31621 4.48437 5.49062L6.125 7.13125V0.875C6.125 0.627083 6.209 0.419417 6.377 0.252C6.545 0.0845834 6.75267 0.000583333 7 0C7.24792 0 7.45587 0.0840001 7.62387 0.252C7.79187 0.42 7.87558 0.627667 7.875 0.875V7.13125L9.51562 5.49062C9.69062 5.31562 9.89858 5.23162 10.1395 5.23862C10.3804 5.24562 10.5881 5.33692 10.7625 5.5125C10.9229 5.6875 11.0069 5.89167 11.0145 6.125C11.0221 6.35833 10.9381 6.5625 10.7625 6.7375L7.6125 9.8875C7.525 9.975 7.43021 10.0371 7.32812 10.0739C7.22604 10.1106 7.11667 10.1287 7 10.1281ZM1.75 14C1.26875 14 0.856916 13.8288 0.5145 13.4864C0.172083 13.144 0.000583333 12.7318 0 12.25V10.5C0 10.2521 0.0840001 10.0444 0.252 9.877C0.42 9.70958 0.627667 9.62558 0.875 9.625C1.12292 9.625 1.33087 9.709 1.49887 9.877C1.66687 10.045 1.75058 10.2527 1.75 10.5V12.25H12.25V10.5C12.25 10.2521 12.334 10.0444 12.502 9.877C12.67 9.70958 12.8777 9.62558 13.125 9.625C13.3729 9.625 13.5809 9.709 13.7489 9.877C13.9169 10.045 14.0006 10.2527 14 10.5V12.25C14 12.7312 13.8288 13.1434 13.4864 13.4864C13.144 13.8294 12.7318 14.0006 12.25 14H1.75Z" fill="#81FEB7"/>
</svg>
