<svg width="13" height="15" viewBox="0 0 13 15" fill="none" xmlns="http://www.w3.org/2000/svg">
<path d="M1.9 14.3335C1.515 14.3335 1.1853 14.1963 0.910901 13.9219C0.636501 13.6475 0.499535 13.318 0.500001 12.9335V3.8335C0.500001 3.63516 0.567201 3.4688 0.701601 3.3344C0.836001 3.2 1.00213 3.13303 1.2 3.1335C1.39833 3.1335 1.5647 3.2007 1.6991 3.3351C1.8335 3.4695 1.90047 3.63563 1.9 3.8335V12.9335H8.9C9.09833 12.9335 9.2647 13.0007 9.3991 13.1351C9.5335 13.2695 9.60046 13.4356 9.6 13.6335C9.6 13.8318 9.5328 13.9982 9.3984 14.1326C9.264 14.267 9.09787 14.334 8.9 14.3335H1.9ZM4.7 11.5335C4.315 11.5335 3.9853 11.3963 3.7109 11.1219C3.4365 10.8475 3.29953 10.518 3.3 10.1335V1.7335C3.3 1.3485 3.4372 1.0188 3.7116 0.744397C3.986 0.469997 4.31547 0.333031 4.7 0.333497H11C11.385 0.333497 11.7147 0.470697 11.9891 0.745097C12.2635 1.0195 12.4005 1.34896 12.4 1.7335V10.1335C12.4 10.5185 12.2628 10.8482 11.9884 11.1226C11.714 11.397 11.3845 11.534 11 11.5335H4.7Z" fill="#81FEB7"/>
</svg>
