<svg width="67" height="66" viewBox="0 0 67 66" fill="none" xmlns="http://www.w3.org/2000/svg">
<path d="M63.7072 27.7844C66.1804 27.7844 67.2128 24.6069 65.2039 23.1422L34.6375 0.907758C34.201 0.587943 33.6739 0.415527 33.1328 0.415527C32.5916 0.415527 32.0646 0.587943 31.6281 0.907758L1.06166 23.1422C-0.947284 24.5989 0.0852028 27.7844 2.56637 27.7844H7.52071V57.7185H1.75799C1.40583 57.7185 1.11769 58.0067 1.11769 58.3588V64.9219C1.11769 65.2741 1.40583 65.5622 1.75799 65.5622H64.5076C64.8597 65.5622 65.1479 65.2741 65.1479 64.9219V58.3588C65.1479 58.0067 64.8597 57.7185 64.5076 57.7185H58.7449V27.7844H63.7072ZM22.6478 57.7185H13.2834V27.7844H22.6478V57.7185ZM37.775 57.7185H28.4106V27.7844H37.775V57.7185ZM52.9821 57.7185H43.5377V27.7844H52.9821V57.7185Z" fill="#81FEB7"/>
</svg>
