<svg width="46" height="66" viewBox="0 0 46 66" fill="none" xmlns="http://www.w3.org/2000/svg">
<path d="M8.78011 64.4285L19.2651 35.3126L20.5011 30.2619L22.4191 35.2701L29.537 53.8177C30.2189 55.6852 30.9577 57.3263 31.7533 58.7411C32.5773 60.1559 33.515 61.3301 34.5664 62.2639C35.5893 63.2259 36.7543 63.9474 38.0614 64.4285C39.3684 64.9095 40.8602 65.15 42.5367 65.15C42.8776 65.15 43.3039 65.0793 43.8153 64.9378C44.3268 64.8246 44.7388 64.6831 45.0514 64.5134L45.1366 58.1045C44.7956 58.1893 44.4973 58.2459 44.2415 58.2742C44.0142 58.3025 43.659 58.3167 43.176 58.3167C42.494 58.3167 41.8547 58.1469 41.258 57.8074C40.6613 57.4678 40.1214 57.0009 39.6384 56.4067C39.1553 55.8408 38.7149 55.1759 38.3171 54.4119C37.9193 53.6479 37.5641 52.7708 37.2515 51.7805L21.8224 11.4596C21.3962 10.3278 20.8279 9.09695 20.1175 7.76707C19.4356 6.40889 18.5689 5.14975 17.5176 3.98964C16.4378 2.85783 15.145 1.90993 13.639 1.14596C12.133 0.381987 10.3571 0 8.31127 0C7.60091 0 6.81951 0.0707383 5.96707 0.212215C5.11463 0.353692 4.43268 0.495168 3.92122 0.636645L3.96384 6.66355C4.33323 6.63525 4.80207 6.59281 5.37036 6.53622C5.93865 6.47963 6.40749 6.45134 6.77688 6.45134C7.74298 6.45134 8.60962 6.69185 9.37682 7.17287C10.1724 7.62559 10.8828 8.23394 11.5079 8.99792C12.133 9.76189 12.6871 10.639 13.1702 11.6294C13.6532 12.5914 14.0936 13.5676 14.4914 14.5579L16.8357 20.6273L0 64.4285H8.78011Z" fill="#81FEB7"/>
</svg>
