<svg width="18" height="18" viewBox="0 0 18 18" fill="none" xmlns="http://www.w3.org/2000/svg">
<path d="M2.87926 2.87904C4.08841 1.66988 6.05417 1.66988 7.26332 2.87904L10.0917 5.70746L11.4352 4.36396L8.60682 1.53553C6.65521 -0.416081 3.48737 -0.416081 1.53576 1.53553C-0.41586 3.48715 -0.415859 6.65499 1.53576 8.6066L4.36418 11.435L5.70768 10.0915L2.87926 7.2631C1.67011 6.05395 1.67011 4.08819 2.87926 2.87904ZM5.07129 6.48528L10.7281 12.1421L12.1424 10.7279L6.4855 5.07107L5.07129 6.48528ZM15.6779 8.6066L12.8495 5.77817L11.506 7.12168L14.3344 9.9501C15.5435 11.1593 15.5435 13.125 14.3344 14.3342C13.1252 15.5433 11.1595 15.5433 9.95033 14.3342L7.1219 11.5057L5.7784 12.8492L8.60682 15.6777C10.5584 17.6293 13.7263 17.6293 15.6779 15.6777C17.6295 13.7261 17.6295 10.5582 15.6779 8.6066Z" fill="#81FEB7"/>
</svg>
