<svg width="14" height="14" viewBox="0 0 14 14" fill="none" xmlns="http://www.w3.org/2000/svg">
<path d="M6.59375 2.17976L7.81986 0.953652C8.13867 0.634843 8.52195 0.386748 8.94782 0.223535C9.37369 0.060321 9.83381 -0.0148159 10.3019 0.00241402C10.77 0.0196439 11.2369 0.128903 11.676 0.323954C12.115 0.519004 12.5176 0.796026 12.8608 1.1392C13.204 1.48238 13.481 1.88499 13.676 2.32404C13.8711 2.7631 13.9804 3.23001 13.9976 3.6981C14.0148 4.16619 13.9397 4.62631 13.7765 5.05218C13.6133 5.47805 13.3652 5.86133 13.0463 6.18014L10.5941 8.63236C10.2753 8.95119 9.89206 9.1993 9.46619 9.36253C9.04032 9.52576 8.5802 9.6009 8.11209 9.58367C7.64399 9.56644 7.17708 9.45717 6.73802 9.26211C6.29896 9.06705 5.89636 8.79 5.55319 8.44681C5.41302 8.29697 5.33254 8.10276 5.32868 7.905C5.32481 7.70724 5.39786 7.52133 5.53246 7.38634C5.66745 7.25173 5.85336 7.17869 6.05112 7.18255C6.24889 7.18642 6.4431 7.26689 6.59293 7.40707C6.78893 7.60364 7.01906 7.76235 7.27011 7.8741C7.52116 7.98585 7.78821 8.04845 8.05595 8.0583C8.32368 8.06816 8.58684 8.02508 8.83034 7.93153C9.07383 7.83798 9.29288 7.6958 9.47493 7.51315L11.9271 5.06093C12.2765 4.68841 12.4566 4.18336 12.4292 3.65292C12.4018 3.12249 12.169 2.60839 11.7803 2.21967C11.3916 1.83096 10.8775 1.59822 10.3471 1.57081C9.81664 1.5434 9.31159 1.72348 8.93907 2.07286L7.71296 3.29897C7.57305 3.42848 7.38424 3.49486 7.18623 3.48415C6.98822 3.47345 6.79642 3.3865 6.65114 3.24158C6.50622 3.0963 6.41927 2.9045 6.40857 2.70649C6.39786 2.50848 6.46424 2.31967 6.59375 2.17976ZM2.17894 11.8211C2.37495 12.0176 2.60507 12.1763 2.85612 12.2881C3.10718 12.3998 3.37422 12.4624 3.64196 12.4723C3.90969 12.4821 4.17285 12.4391 4.41635 12.3455C4.65984 12.252 4.87889 12.1098 5.06093 11.9271L6.28704 10.701C6.42695 10.5715 6.61576 10.5051 6.81377 10.5158C7.01178 10.5265 7.20358 10.6135 7.34886 10.7584C7.49378 10.9037 7.58073 11.0955 7.59144 11.2935C7.60214 11.4915 7.53576 11.6803 7.40625 11.8202L6.18014 13.0463C5.86133 13.3652 5.47805 13.6133 5.05218 13.7765C4.62631 13.9397 4.1662 14.0148 3.6981 13.9976C2.75274 13.9628 1.83228 13.5539 1.1392 12.8608C0.446128 12.1677 0.0372139 11.2473 0.00241652 10.3019C-0.0323808 9.35654 0.30979 8.46372 0.953654 7.81986L3.40587 5.36764C3.72467 5.04881 4.10794 4.8007 4.53381 4.63747C4.95968 4.47424 5.41981 4.3991 5.88791 4.41633C6.35601 4.43356 6.82292 4.54283 7.26198 4.73789C7.70104 4.93295 8.10365 5.20999 8.44681 5.55319C8.58698 5.70303 8.66746 5.89724 8.67133 6.095C8.67519 6.29276 8.60214 6.47867 8.46754 6.61366C8.33255 6.74827 8.14664 6.82131 7.94888 6.81745C7.75112 6.81358 7.55691 6.73311 7.40707 6.59293C7.21107 6.39636 6.98095 6.23765 6.72989 6.1259C6.47884 6.01415 6.21179 5.95155 5.94406 5.94169C5.67632 5.93184 5.41316 5.97492 5.16967 6.06847C4.92617 6.16202 4.70712 6.30419 4.52508 6.48685L2.07286 8.93907C1.89021 9.12111 1.74803 9.34016 1.65448 9.58365C1.56093 9.82715 1.51785 10.0903 1.52771 10.358C1.53756 10.6258 1.60016 10.8928 1.71191 11.1439C1.82366 11.3949 1.98237 11.6251 2.17894 11.8211Z" fill="#FDFDFD"/>
</svg>
