<svg width="32" height="32" viewBox="0 0 32 32" fill="none" xmlns="http://www.w3.org/2000/svg">
<path d="M23.1111 12.4444C23.6148 12.4444 24.0373 12.2738 24.3787 11.9324C24.72 11.5911 24.8901 11.1692 24.8889 10.6667C24.8889 10.163 24.7182 9.74045 24.3769 9.39911C24.0356 9.05778 23.6136 8.88771 23.1111 8.88889H17.7778C17.2741 8.88889 16.8516 9.05956 16.5102 9.40089C16.1689 9.74222 15.9988 10.1641 16 10.6667C16 11.1704 16.1707 11.5929 16.512 11.9342C16.8533 12.2756 17.2753 12.4456 17.7778 12.4444H23.1111ZM23.1111 23.1111C23.6148 23.1111 24.0373 22.9404 24.3787 22.5991C24.72 22.2578 24.8901 21.8359 24.8889 21.3333C24.8889 20.8296 24.7182 20.4071 24.3769 20.0658C24.0356 19.7244 23.6136 19.5544 23.1111 19.5556H17.7778C17.2741 19.5556 16.8516 19.7262 16.5102 20.0676C16.1689 20.4089 15.9988 20.8308 16 21.3333C16 21.837 16.1707 22.2596 16.512 22.6009C16.8533 22.9422 17.2753 23.1123 17.7778 23.1111H23.1111ZM10.6667 14.2222C11.6444 14.2222 12.4818 13.8738 13.1787 13.1769C13.8756 12.48 14.2234 11.6433 14.2222 10.6667C14.2222 9.68889 13.8738 8.85156 13.1769 8.15467C12.48 7.45778 11.6433 7.10993 10.6667 7.11111C9.68889 7.11111 8.85156 7.45956 8.15467 8.15645C7.45778 8.85333 7.10993 9.69008 7.11111 10.6667C7.11111 11.6444 7.45956 12.4818 8.15645 13.1787C8.85333 13.8756 9.69008 14.2234 10.6667 14.2222ZM10.6667 24.8889C11.6444 24.8889 12.4818 24.5404 13.1787 23.8436C13.8756 23.1467 14.2234 22.3099 14.2222 21.3333C14.2222 20.3556 13.8738 19.5182 13.1769 18.8213C12.48 18.1244 11.6433 17.7766 10.6667 17.7778C9.68889 17.7778 8.85156 18.1262 8.15467 18.8231C7.45778 19.52 7.10993 20.3567 7.11111 21.3333C7.11111 22.3111 7.45956 23.1484 8.15645 23.8453C8.85333 24.5422 9.69008 24.8901 10.6667 24.8889ZM3.55556 32C2.57778 32 1.74045 31.6516 1.04356 30.9547C0.346669 30.2578 -0.00118217 29.421 3.0183e-06 28.4444V3.55556C3.0183e-06 2.57778 0.348447 1.74045 1.04534 1.04356C1.74222 0.346669 2.57897 -0.00118217 3.55556 3.0183e-06H28.4444C29.4222 3.0183e-06 30.2596 0.348447 30.9564 1.04534C31.6533 1.74222 32.0012 2.57897 32 3.55556V28.4444C32 29.4222 31.6516 30.2596 30.9547 30.9564C30.2578 31.6533 29.421 32.0012 28.4444 32H3.55556Z" fill="#81FEB7"/>
</svg>
