<svg width="65" height="64" viewBox="0 0 65 64" fill="none" xmlns="http://www.w3.org/2000/svg">
<path d="M59.2819 0H5.69965C2.82325 0 0.5 2.32392 0.5 5.20115V58.8173C0.5 61.6761 2.82325 64 5.69965 64H59.3003C62.1767 64 64.5 61.6761 64.5 58.7988V5.20115C64.4816 2.32392 62.1583 0 59.2819 0ZM16.8181 51.2553C14.6423 51.2553 12.8722 49.4847 12.8722 47.3084C12.8722 45.132 14.6423 43.3614 16.8181 43.3614C18.9938 43.3614 20.7639 45.132 20.7639 47.3084C20.7455 49.4847 18.9938 51.2553 16.8181 51.2553ZM16.8181 35.947C14.6423 35.947 12.8722 34.1764 12.8722 32C12.8722 29.8236 14.6423 28.053 16.8181 28.053C18.9938 28.053 20.7639 29.8236 20.7639 32C20.7639 34.1764 18.9938 35.947 16.8181 35.947ZM16.8181 20.6386C14.6423 20.6386 12.8722 18.868 12.8722 16.6916C12.8722 14.5153 14.6423 12.7447 16.8181 12.7447C18.9938 12.7447 20.7639 14.5153 20.7639 16.6916C20.7639 18.868 18.9938 20.6386 16.8181 20.6386ZM49.7861 49.7245H26.2401C24.9679 49.7245 23.9169 48.6363 23.9169 47.3084C23.9169 45.9804 24.9679 44.8922 26.2401 44.8922H49.7861C51.0583 44.8922 52.1093 45.9804 52.1093 47.3084C52.1093 48.6363 51.0768 49.7245 49.7861 49.7245ZM49.7861 34.4161H26.2401C24.9679 34.4161 23.9169 33.328 23.9169 32C23.9169 30.672 24.9679 29.5839 26.2401 29.5839H49.7861C51.0583 29.5839 52.1093 30.672 52.1093 32C52.1093 33.328 51.0768 34.4161 49.7861 34.4161ZM49.7861 19.1078H26.2401C24.9679 19.1078 23.9169 18.0196 23.9169 16.6916C23.9169 15.3637 24.9679 14.2755 26.2401 14.2755H49.7861C51.0583 14.2755 52.1093 15.3637 52.1093 16.6916C52.1093 18.0196 51.0768 19.1078 49.7861 19.1078Z" fill="#81FEB7"/>
</svg>
