<svg width="67" height="65" viewBox="0 0 67 65" fill="none" xmlns="http://www.w3.org/2000/svg">
<path d="M52.851 18.2859L50.76 13.6393L46.1133 11.5483C45.8236 11.4163 45.578 11.2037 45.4057 10.9359C45.2335 10.6682 45.1419 10.3565 45.1419 10.0381C45.1419 9.71974 45.2335 9.40807 45.4057 9.1403C45.578 8.87253 45.8236 8.65997 46.1133 8.52796L50.76 6.43697L52.851 1.79032C52.983 1.50058 53.1956 1.25494 53.4633 1.08269C53.7311 0.910436 54.0428 0.818848 54.3612 0.818848C54.6795 0.818848 54.9912 0.910436 55.259 1.08269C55.5267 1.25494 55.7393 1.50058 55.8713 1.79032L57.9623 6.43697L62.609 8.52796C62.8987 8.65997 63.1443 8.87253 63.3166 9.1403C63.4888 9.40807 63.5804 9.71974 63.5804 10.0381C63.5804 10.3565 63.4888 10.6682 63.3166 10.9359C63.1443 11.2037 62.8987 11.4163 62.609 11.5483L57.9623 13.6393L55.8713 18.2859C55.3071 19.5804 53.4484 19.5804 52.851 18.2859ZM63.6047 33.985L62.5426 31.5953C62.4106 31.3055 62.198 31.0599 61.9302 30.8876C61.6625 30.7154 61.3508 30.6238 61.0324 30.6238C60.714 30.6238 60.4024 30.7154 60.1346 30.8876C59.8668 31.0599 59.6543 31.3055 59.5223 31.5953L58.4602 33.985L56.0373 35.0471C55.7475 35.1791 55.5019 35.3916 55.3296 35.6594C55.1574 35.9272 55.0658 36.2388 55.0658 36.5572C55.0658 36.8756 55.1574 37.1873 55.3296 37.4551C55.5019 37.7228 55.7475 37.9354 56.0373 38.0674L58.427 39.1295L59.4891 41.5524C59.6211 41.8421 59.8336 42.0878 60.1014 42.26C60.3692 42.4323 60.6808 42.5239 60.9992 42.5239C61.3176 42.5239 61.6293 42.4323 61.8971 42.26C62.1648 42.0878 62.3774 41.8421 62.5094 41.5524L63.5715 39.1627L65.9944 38.1006C66.2841 37.9686 66.5298 37.756 66.702 37.4883C66.8743 37.2205 66.9659 36.9088 66.9659 36.5904C66.9659 36.272 66.8743 35.9604 66.702 35.6926C66.5298 35.4248 66.2841 35.2123 65.9944 35.0803L63.6047 33.985ZM46.8767 39.4614L50.9591 42.5481C52.2867 43.5438 52.6518 45.4025 51.8221 46.8629L46.4452 56.1562C45.6155 57.6165 43.8232 58.214 42.2964 57.5502L37.5502 55.5587C36.8864 55.9902 36.1562 56.4217 35.426 56.7868L34.7954 61.8981C34.5963 63.5576 33.1691 64.8188 31.5096 64.8188H20.7891C19.1296 64.8188 17.7024 63.5576 17.5032 61.8981L16.8726 56.7868C16.1424 56.4217 15.4454 56.0234 14.7484 55.5587L10.0022 57.5502C8.47545 58.214 6.68317 57.6165 5.85341 56.1562L0.47657 46.8629C-0.353189 45.4025 0.0119048 43.577 1.33952 42.5481L5.42194 39.4614V38.2334C5.42194 37.8351 5.42194 37.4036 5.45513 37.0053L1.37271 33.9186C0.0450951 32.9229 -0.319999 31.0642 0.509761 29.6039L5.8866 20.3105C6.71636 18.8502 8.50864 18.2527 10.0354 18.9166L14.7816 20.908C15.4454 20.4765 16.1756 20.045 16.9058 19.6799L17.5364 14.5686C17.7024 12.9423 19.1296 11.681 20.7891 11.681H31.5096C33.1691 11.681 34.5963 12.9423 34.7954 14.6018L35.426 19.7131C36.1562 20.0782 36.8532 20.4765 37.5502 20.9412L42.2964 18.9497C43.8232 18.2859 45.6155 18.8834 46.4452 20.3437L51.8221 29.637C52.6518 31.0974 52.2867 32.9229 50.9591 33.9518L46.8767 37.0385C46.9099 37.4368 46.9099 37.8351 46.9099 38.2665C46.9099 38.698 46.9099 39.0631 46.8767 39.4614ZM36.123 38.2334C36.123 32.7237 31.6755 28.2762 26.1659 28.2762C20.6563 28.2762 16.2088 32.7237 16.2088 38.2334C16.2088 43.743 20.6563 48.1905 26.1659 48.1905C31.6755 48.1905 36.123 43.743 36.123 38.2334Z" fill="#81FEB7"/>
</svg>
