<svg width="14" height="14" viewBox="0 0 14 14" fill="none" xmlns="http://www.w3.org/2000/svg">
<path id="Vector" d="M4.9 9.8C5.285 9.8 5.6147 9.6628 5.8891 9.3884C6.1635 9.114 6.30047 8.78453 6.3 8.4C6.3 8.015 6.1628 7.6853 5.8884 7.4109C5.614 7.1365 5.28453 6.99953 4.9 7C4.515 7 4.1853 7.1372 3.9109 7.4116C3.6365 7.686 3.49953 8.01547 3.5 8.4C3.5 8.785 3.6372 9.1147 3.9116 9.3891C4.186 9.6635 4.51547 9.80047 4.9 9.8ZM9.1 9.8C9.485 9.8 9.8147 9.6628 10.0891 9.3884C10.3635 9.114 10.5005 8.78453 10.5 8.4C10.5 8.015 10.3628 7.6853 10.0884 7.4109C9.814 7.1365 9.48453 6.99953 9.1 7C8.715 7 8.3853 7.1372 8.1109 7.4116C7.8365 7.686 7.69953 8.01547 7.7 8.4C7.7 8.785 7.8372 9.1147 8.1116 9.3891C8.386 9.6635 8.71547 9.80047 9.1 9.8ZM7 6.3C7.385 6.3 7.7147 6.1628 7.9891 5.8884C8.2635 5.614 8.40047 5.28453 8.4 4.9C8.4 4.515 8.2628 4.1853 7.9884 3.9109C7.714 3.6365 7.38453 3.49953 7 3.5C6.615 3.5 6.2853 3.6372 6.0109 3.9116C5.7365 4.186 5.59953 4.51547 5.6 4.9C5.6 5.285 5.7372 5.6147 6.0116 5.8891C6.286 6.1635 6.61547 6.30047 7 6.3ZM7 14C6.03167 14 5.12167 13.8161 4.27 13.4484C3.41833 13.0807 2.6775 12.582 2.0475 11.9525C1.4175 11.3225 0.918867 10.5817 0.5516 9.73C0.184333 8.87833 0.000466667 7.96833 0 7C0 6.03167 0.183867 5.12167 0.5516 4.27C0.919333 3.41833 1.41797 2.6775 2.0475 2.0475C2.6775 1.4175 3.41833 0.918867 4.27 0.5516C5.12167 0.184333 6.03167 0.000466667 7 0C7.96833 0 8.87833 0.183867 9.73 0.5516C10.5817 0.919333 11.3225 1.41797 11.9525 2.0475C12.5825 2.6775 13.0814 3.41833 13.4491 4.27C13.8168 5.12167 14.0005 6.03167 14 7C14 7.96833 13.8161 8.87833 13.4484 9.73C13.0807 10.5817 12.582 11.3225 11.9525 11.9525C11.3225 12.5825 10.5817 13.0814 9.73 13.4491C8.87833 13.8168 7.96833 14.0005 7 14Z" fill="white"/>
</svg>
