<svg width="75" height="75" viewBox="0 0 75 75" fill="none" xmlns="http://www.w3.org/2000/svg">
<circle cx="37.5" cy="37.5" r="36.5" stroke="#81FEB7" stroke-width="2"/>
<path d="M21.6916 32.2411C18.5544 32.2411 16.0112 34.7843 16.0112 37.9215C16.0112 41.0587 18.5544 43.6019 21.6916 43.6019C24.8289 43.6019 27.3721 41.0587 27.3721 37.9215C27.3721 34.7843 24.8289 32.2411 21.6916 32.2411ZM21.6916 41.2834C19.835 41.2834 18.3298 39.7782 18.3298 37.9215C18.3298 36.0648 19.835 34.5596 21.6916 34.5596C23.5483 34.5596 25.0535 36.0648 25.0535 37.9215C25.0535 39.7782 23.5484 41.2834 21.6916 41.2834Z" fill="#81FEB7"/>
<path d="M57.5131 36.7622H31.3136C30.6733 36.7622 30.1543 37.2812 30.1543 37.9215C30.1543 38.5618 30.6733 39.0808 31.3136 39.0808H57.5131C58.1533 39.0808 58.6723 38.5618 58.6723 37.9215C58.6723 37.2812 58.1533 36.7622 57.5131 36.7622Z" fill="#81FEB7"/>
<path d="M21.6916 16.0112C18.5544 16.0112 16.0112 18.5544 16.0112 21.6916C16.0112 24.8289 18.5544 27.3721 21.6916 27.3721C24.8289 27.3721 27.3721 24.8289 27.3721 21.6916C27.3721 18.5544 24.8289 16.0112 21.6916 16.0112ZM21.6916 25.0535C19.835 25.0535 18.3298 23.5483 18.3298 21.6916C18.3298 19.835 19.835 18.3298 21.6916 18.3298C23.5483 18.3298 25.0535 19.835 25.0535 21.6916C25.0535 23.5483 23.5484 25.0535 21.6916 25.0535Z" fill="#81FEB7"/>
<path d="M31.3136 22.8511H57.5131C58.1533 22.8511 58.6723 22.3321 58.6723 21.6919C58.6723 21.0516 58.1533 20.5326 57.5131 20.5326H31.3136C30.6733 20.5326 30.1543 21.0516 30.1543 21.6919C30.1543 22.3321 30.6733 22.8511 31.3136 22.8511Z" fill="#81FEB7"/>
<path d="M21.6916 48.4706C18.5544 48.4706 16.0112 51.0138 16.0112 54.151C16.0112 57.2882 18.5544 59.8314 21.6916 59.8314C24.8289 59.8314 27.3721 57.2882 27.3721 54.151C27.3721 51.0138 24.8289 48.4706 21.6916 48.4706ZM25.0535 54.151C25.0535 56.0077 23.5483 57.5129 21.6916 57.5129C19.835 57.5129 18.3298 56.0077 18.3298 54.151C18.3298 52.2943 19.835 50.7891 21.6916 50.7891C23.5483 50.7891 25.0535 52.2943 25.0535 54.151Z" fill="#81FEB7"/>
<path d="M57.5131 52.9919H31.3136C30.6733 52.9919 30.1543 53.5109 30.1543 54.1512C30.1543 54.7915 30.6733 55.3105 31.3136 55.3105H57.5131C58.1533 55.3105 58.6723 54.7915 58.6723 54.1512C58.6723 53.5109 58.1533 52.9919 57.5131 52.9919Z" fill="#81FEB7"/>
</svg>
