<svg width="116" height="116" viewBox="0 0 116 116" fill="none" xmlns="http://www.w3.org/2000/svg">
<g clip-path="url(#clip0)">
<path d="M60.8686 55.1341C59.9828 54.2483 58.5486 54.2483 57.6628 55.1341C56.7792 56.0177 56.7792 57.4519 57.6628 58.3377C58.5486 59.2213 59.9828 59.2213 60.8686 58.3377C61.7522 57.4519 61.7522 56.0177 60.8686 55.1341Z" fill="#81FEB7"/>
<path d="M89.7034 26.2967C85.2764 21.8699 78.1098 21.8697 73.6825 26.2967C69.2671 30.7122 69.2668 37.8988 73.6832 42.3179C78.1002 46.7322 85.2868 46.734 89.7034 42.3174C94.13 37.8908 94.1309 30.724 89.7034 26.2967ZM86.4993 39.1131C83.8502 41.7626 79.5378 41.7626 76.8872 39.1136C74.2376 36.4624 74.2374 32.15 76.8868 29.5008C79.5428 26.8448 83.8429 26.8443 86.4993 29.5008C89.1553 32.1565 89.1558 36.4569 86.4993 39.1131Z" fill="#81FEB7"/>
<path d="M115.336 0.663622C114.891 0.218881 114.284 -0.0221809 113.653 0.00160814C113.14 0.0199597 100.943 0.51024 86.4445 5.63485C74.8264 9.73698 65.1425 15.6101 57.6616 23.0912C55.9853 24.7676 54.3541 26.5452 52.7933 28.3919C45.3965 24.0378 39.4692 25.4031 35.722 27.4084C27.0943 32.0257 21.754 44.5627 21.754 53.5301C21.7547 54.4463 22.3068 55.2726 23.1533 55.6231C23.4335 55.7393 23.7281 55.7957 24.0199 55.7957C24.6096 55.7957 25.1889 55.5653 25.6224 55.1321C30.1724 50.582 35.7846 50.8666 37.6179 51.1077L38.4113 51.9011C36.8499 55.6167 35.592 59.3115 34.6694 62.905C34.3364 64.2054 34.4488 65.5816 34.9438 66.8404C32.7625 67.8456 30.6579 69.3217 28.8255 71.1541C22.9936 76.9863 21.8093 91.1994 21.7617 91.8016C21.7096 92.4625 21.9493 93.1132 22.4181 93.5819C22.8447 94.0083 23.4218 94.2455 24.0199 94.2455C24.0792 94.2455 24.1388 94.2433 24.1984 94.2385C24.8006 94.1912 39.0142 93.0069 44.8461 87.175C46.6779 85.3432 48.1537 83.2389 49.159 81.058C50.4916 81.5821 51.8632 81.6467 53.0966 81.3306C56.6885 80.4083 60.3829 79.1508 64.0989 77.5892L64.8924 78.3826C65.1332 80.2161 65.4178 85.8283 60.8679 90.3779C60.2202 91.0259 60.0263 92.0003 60.377 92.8467C60.7275 93.6934 61.5535 94.2453 62.47 94.2453C71.4373 94.2453 83.9741 88.905 88.5914 80.2773C90.5967 76.5307 91.962 70.6033 87.6079 63.2063C89.4537 61.6462 91.2316 60.015 92.9086 58.3379C100.39 50.8569 106.263 41.1729 110.365 29.5557C115.49 15.0562 115.98 2.85901 115.998 2.34698C116.021 1.71827 115.781 1.10859 115.336 0.663622ZM26.8195 48.6569C28.2269 41.8458 32.3148 34.3718 37.861 31.4033C41.5673 29.42 45.6185 29.6144 49.9259 31.9722C46.2563 36.7985 43.0661 41.9981 40.4069 47.4888C40.3731 47.4679 39.9653 46.9552 39.2077 46.7844C38.8962 46.7139 32.9016 45.4246 26.8195 48.6569ZM41.6421 83.9707C38.5269 87.086 31.2191 88.729 26.6002 89.3998C27.2713 84.7807 28.9145 77.4732 32.0295 74.3581C33.7741 72.6136 35.7968 71.291 37.83 70.546L45.4542 78.1703C44.7093 80.2035 43.3869 82.2262 41.6421 83.9707ZM51.9711 76.9412C51.3154 77.1091 50.556 76.8626 49.9914 76.2989C47.0603 73.3679 45.9137 72.2212 45.5539 71.8617C44.8942 71.2019 43.2763 69.584 39.7027 66.0102C39.1377 65.4441 38.8912 64.6849 39.0586 64.0303C39.7843 61.2042 40.7334 58.3046 41.8875 55.3772L60.623 74.1128C57.6952 75.2671 54.7961 76.216 51.9711 76.9412ZM84.5969 78.1392C81.6285 83.6853 74.1547 87.7733 67.3438 89.1805C69.5154 85.094 69.9941 79.8919 69.2007 76.7375C69.0165 76.0048 68.5384 75.6364 68.5117 75.5931C74.002 72.934 79.2013 69.7438 84.028 66.0741C86.3858 70.382 86.58 74.4336 84.5969 78.1392ZM89.705 55.1339C87.6634 57.1752 85.4651 59.1474 83.1709 60.9955C77.656 65.4361 71.5859 69.1975 65.1099 72.1918L43.8085 50.8908C46.8027 44.4143 50.5641 38.3443 55.0043 32.83C56.8539 30.5342 58.8259 28.3357 60.8666 26.2953C67.5785 19.5831 76.2409 14.2413 86.6201 10.3961L105.604 29.3801C101.759 39.7592 96.4176 48.4216 89.705 55.1339ZM107.234 24.6017L91.3985 8.76594C100.026 6.08616 107.532 5.08272 111.278 4.72203C110.918 8.46914 109.914 15.9749 107.234 24.6017Z" fill="#81FEB7"/>
<path d="M54.459 93.5813C53.5738 92.6966 52.1392 92.697 51.2547 93.5817L44.8475 99.9912C43.963 100.876 43.9632 102.311 44.848 103.195C45.7331 104.08 47.1677 104.08 48.0522 103.195L54.4594 96.7853C55.3439 95.9004 55.3437 94.4658 54.459 93.5813Z" fill="#81FEB7"/>
<path d="M22.4192 61.5412C21.5347 60.6563 20.1004 60.6563 19.2152 61.5408L12.8057 67.9479C11.9208 68.8324 11.9206 70.267 12.8051 71.152C13.6893 72.0365 15.1237 72.0374 16.0091 71.1524L22.4185 64.7452C23.3035 63.8608 23.3037 62.4262 22.4192 61.5412Z" fill="#81FEB7"/>
<path d="M38.4392 96.7876C37.5549 95.9029 36.1201 95.9029 35.2352 96.7874L19.8878 112.132C19.0029 113.017 19.0029 114.452 19.8876 115.336C20.7719 116.221 22.2067 116.222 23.0917 115.337L38.439 99.9916C39.3239 99.1069 39.3239 97.6723 38.4392 96.7876Z" fill="#81FEB7"/>
<path d="M20.3142 96.7876C19.4297 95.9029 17.9949 95.9029 17.1102 96.7874L1.76288 112.132C0.877931 113.017 0.877931 114.452 1.76266 115.336C2.64693 116.221 4.08174 116.222 4.9667 115.337L20.314 99.9916C21.199 99.1069 21.199 97.6723 20.3142 96.7876Z" fill="#81FEB7"/>
<path d="M19.2129 77.5608C18.3284 76.6763 16.8936 76.6763 16.0089 77.561L0.663828 92.9083C-0.220897 93.7933 -0.220897 95.2276 0.664055 96.1126C1.54878 96.9973 2.98337 96.9973 3.8681 96.1124L19.2131 80.7651C20.0979 79.8801 20.0979 78.4458 19.2129 77.5608Z" fill="#81FEB7"/>
<path d="M70.4796 45.5205C69.5947 44.6358 68.1605 44.6358 67.2753 45.5205L64.0718 48.7241C63.187 49.6088 63.187 51.0434 64.0718 51.9283C64.9567 52.8131 66.3911 52.8131 67.276 51.9283L70.4796 48.7247C71.3643 47.84 71.3643 46.4054 70.4796 45.5205Z" fill="#81FEB7"/>
</g>
<defs>
<clipPath id="clip0">
<rect width="116" height="116" fill="white"/>
</clipPath>
</defs>
</svg>
