<svg width="75" height="65" viewBox="0 0 75 65" fill="none" xmlns="http://www.w3.org/2000/svg">
<path d="M30.4789 30.9365C26.3377 30.9365 22.7926 29.462 19.8436 26.513C16.8945 23.5639 15.42 20.0188 15.42 15.8777C15.42 11.7365 16.8945 8.19139 19.8436 5.24238C22.7926 2.29336 26.3377 0.818848 30.4789 0.818848C34.62 0.818848 38.1651 2.29336 41.1141 5.24238C44.0632 8.19139 45.5377 11.7365 45.5377 15.8777C45.5377 20.0188 44.0632 23.5639 41.1141 26.513C38.1651 29.462 34.62 30.9365 30.4789 30.9365ZM4.12592 61.0541C3.05926 61.0541 2.16451 60.6927 1.44169 59.9699C0.718866 59.2471 0.358709 58.3536 0.361219 57.2894V50.5129C0.361219 48.4424 0.894552 46.4973 1.96122 44.6776C3.02788 42.858 4.50239 41.4776 6.38474 40.5365C9.58474 38.9051 13.1926 37.5247 17.2083 36.3953C21.224 35.2659 25.6475 34.7012 30.4789 34.7012H31.7965C32.173 34.7012 32.5494 34.7639 32.9259 34.8894C32.4239 36.0188 31.9998 37.1959 31.6534 38.4207C31.3071 39.6455 31.041 40.9155 30.8553 42.2306C30.5416 44.4894 30.4475 46.3881 30.573 47.9266C30.6985 49.4651 31.0436 51.3311 31.6083 53.5247C31.9847 54.8423 32.4867 56.1449 33.1141 57.4325C33.7416 58.72 34.4318 59.9272 35.1847 61.0541H4.12592ZM56.8318 53.5247C58.9024 53.5247 60.6755 52.7868 62.1513 51.3111C63.6271 49.8353 64.3637 48.0634 64.3612 45.9953C64.3612 43.9247 63.6233 42.1515 62.1475 40.6758C60.6718 39.2 58.8999 38.4634 56.8318 38.4659C54.7612 38.4659 52.988 39.2038 51.5122 40.6795C50.0365 42.1553 49.2999 43.9272 49.3024 45.9953C49.3024 48.0659 50.0403 49.8391 51.516 51.3148C52.9918 52.7906 54.7637 53.5272 56.8318 53.5247ZM51.9377 59.1718C51.1847 58.858 50.4782 58.528 49.8181 58.1816C49.1581 57.8353 48.4842 57.4124 47.7965 56.9129L43.7494 58.1365C43.3102 58.262 42.9024 58.2456 42.5259 58.0875C42.1494 57.9294 41.8357 57.6634 41.5847 57.2894L39.3259 53.5247C39.0749 53.1482 38.9971 52.7404 39.0925 52.3012C39.1879 51.862 39.4225 51.4855 39.7965 51.1718L42.9024 48.4423C42.7769 47.5639 42.7141 46.7482 42.7141 45.9953C42.7141 45.2424 42.7769 44.4267 42.9024 43.5482L39.7965 40.8188C39.42 40.5051 39.1854 40.1286 39.0925 39.6894C38.9996 39.2502 39.0774 38.8424 39.3259 38.4659L41.5847 34.7012C41.8357 34.3247 42.1494 34.0587 42.5259 33.9031C42.9024 33.7475 43.3102 33.7311 43.7494 33.8541L47.7965 35.0777C48.4867 34.5757 49.1618 34.1528 49.8219 33.8089C50.482 33.4651 51.1872 33.1351 51.9377 32.8188L52.7847 28.6777C52.9102 28.2384 53.1298 27.877 53.4435 27.5934C53.7573 27.3098 54.1337 27.1693 54.573 27.1718H59.0906C59.5298 27.1718 59.9063 27.3136 60.22 27.5972C60.5337 27.8808 60.7533 28.2409 60.8788 28.6777L61.7259 32.8188C62.4788 33.1326 63.1853 33.4776 63.8454 33.8541C64.5055 34.2306 65.1794 34.7012 65.8671 35.2659L69.82 33.8541C70.2592 33.6659 70.6834 33.6659 71.0925 33.8541C71.5016 34.0424 71.8304 34.3247 72.0788 34.7012L74.3376 38.6541C74.5886 39.0306 74.6827 39.4384 74.62 39.8776C74.5573 40.3169 74.3376 40.6933 73.9612 41.0071L70.7612 43.7365C70.8867 44.4894 70.9494 45.2737 70.9494 46.0894C70.9494 46.9051 70.8867 47.6894 70.7612 48.4423L73.8671 51.1718C74.2435 51.4855 74.4795 51.862 74.5748 52.3012C74.6702 52.7404 74.5911 53.1482 74.3376 53.5247L72.0788 57.2894C71.8278 57.6659 71.5141 57.9332 71.1376 58.0913C70.7612 58.2494 70.3533 58.2645 69.9141 58.1365L65.8671 56.9129C65.1769 57.4149 64.503 57.8391 63.8454 58.1854C63.1879 58.5318 62.4813 58.8605 61.7259 59.1718L60.8788 63.3129C60.7533 63.7521 60.5337 64.1136 60.22 64.3972C59.9063 64.6808 59.5298 64.8213 59.0906 64.8188H54.573C54.1337 64.8188 53.7573 64.6783 53.4435 64.3972C53.1298 64.1161 52.9102 63.7547 52.7847 63.3129L51.9377 59.1718Z" fill="#81FEB7"/>
</svg>
