<svg width="14" height="17" viewBox="0 0 14 17" fill="none" xmlns="http://www.w3.org/2000/svg">
<path d="M9.66709 6.20407H11.1116C11.4947 6.20407 11.8621 6.35585 12.133 6.62601C12.4039 6.89617 12.5561 7.26258 12.5561 7.64465V14.5594C12.5561 14.9415 12.4039 15.3079 12.133 15.5781C11.8621 15.8482 11.4947 16 11.1116 16H2.44452C2.06141 16 1.69399 15.8482 1.42309 15.5781C1.15219 15.3079 1 14.9415 1 14.5594V7.64465C1 7.26258 1.15219 6.89617 1.42309 6.62601C1.69399 6.35585 2.06141 6.20407 2.44452 6.20407H3.88903" stroke="#81FEB7" stroke-width="1.5" stroke-linecap="round" stroke-linejoin="round"/>
<path d="M9.648 3.83163L6.7781 1L3.9082 3.83163" stroke="#81FEB7" stroke-width="1.5" stroke-linecap="round" stroke-linejoin="round"/>
<path d="M6.81641 10.8724V1" stroke="#81FEB7" stroke-width="1.5" stroke-linecap="round" stroke-linejoin="round"/>
</svg>
