<svg width="14" height="14" viewBox="0 0 14 14" fill="none" xmlns="http://www.w3.org/2000/svg">
<path id="Vector" d="M9.33333 14C8.90555 14 8.53922 13.8476 8.23433 13.5427C7.92944 13.2378 7.77726 12.8717 7.77778 12.4444V9.33333C7.77778 8.90555 7.93022 8.53922 8.23511 8.23433C8.54 7.92944 8.90607 7.77726 9.33333 7.77778H12.4444C12.8722 7.77778 13.2386 7.93022 13.5434 8.23511C13.8483 8.54 14.0005 8.90607 14 9.33333V12.4444C14 12.8722 13.8476 13.2386 13.5427 13.5434C13.2378 13.8483 12.8717 14.0005 12.4444 14H9.33333ZM9.33333 6.22222C8.90555 6.22222 8.53922 6.06978 8.23433 5.76489C7.92944 5.46 7.77726 5.09393 7.77778 4.66667V1.55556C7.77778 1.12778 7.93022 0.761445 8.23511 0.456557C8.54 0.151668 8.90607 -0.000517198 9.33333 1.32051e-06H12.4444C12.8722 1.32051e-06 13.2386 0.152446 13.5434 0.457335C13.8483 0.762223 14.0005 1.1283 14 1.55556V4.66667C14 5.09444 13.8476 5.46078 13.5427 5.76567C13.2378 6.07056 12.8717 6.22274 12.4444 6.22222H9.33333ZM1.55556 6.22222C1.12778 6.22222 0.761445 6.06978 0.456557 5.76489C0.151668 5.46 -0.000517198 5.09393 1.32051e-06 4.66667V1.55556C1.32051e-06 1.12778 0.152446 0.761445 0.457335 0.456557C0.762223 0.151668 1.1283 -0.000517198 1.55556 1.32051e-06H4.66667C5.09444 1.32051e-06 5.46078 0.152446 5.76567 0.457335C6.07056 0.762223 6.22274 1.1283 6.22222 1.55556V4.66667C6.22222 5.09444 6.06978 5.46078 5.76489 5.76567C5.46 6.07056 5.09393 6.22274 4.66667 6.22222H1.55556ZM1.55556 14C1.12778 14 0.761445 13.8476 0.456557 13.5427C0.151668 13.2378 -0.000517198 12.8717 1.32051e-06 12.4444V9.33333C1.32051e-06 8.90555 0.152446 8.53922 0.457335 8.23433C0.762223 7.92944 1.1283 7.77726 1.55556 7.77778H4.66667C5.09444 7.77778 5.46078 7.93022 5.76567 8.23511C6.07056 8.54 6.22274 8.90607 6.22222 9.33333V12.4444C6.22222 12.8722 6.06978 13.2386 5.76489 13.5434C5.46 13.8483 5.09393 14.0005 4.66667 14H1.55556Z" fill="#81FEB7"/>
</svg>
