<svg width="16" height="16" viewBox="0 0 16 16" fill="none" xmlns="http://www.w3.org/2000/svg">
<path d="M10.3333 15C9.90555 15 9.53922 14.8476 9.23433 14.5427C8.92944 14.2378 8.77726 13.8717 8.77778 13.4444V10.3333C8.77778 9.90555 8.93022 9.53922 9.23511 9.23433C9.54 8.92944 9.90607 8.77726 10.3333 8.77778H13.4444C13.8722 8.77778 14.2386 8.93022 14.5434 9.23511C14.8483 9.54 15.0005 9.90607 15 10.3333V13.4444C15 13.8722 14.8476 14.2386 14.5427 14.5434C14.2378 14.8483 13.8717 15.0005 13.4444 15H10.3333ZM10.3333 7.22222C9.90555 7.22222 9.53922 7.06978 9.23433 6.76489C8.92944 6.46 8.77726 6.09393 8.77778 5.66667V2.55556C8.77778 2.12778 8.93022 1.76145 9.23511 1.45656C9.54 1.15167 9.90607 0.999483 10.3333 1H13.4444C13.8722 1 14.2386 1.15245 14.5434 1.45733C14.8483 1.76222 15.0005 2.1283 15 2.55556V5.66667C15 6.09444 14.8476 6.46078 14.5427 6.76567C14.2378 7.07056 13.8717 7.22274 13.4444 7.22222H10.3333ZM2.55556 7.22222C2.12778 7.22222 1.76145 7.06978 1.45656 6.76489C1.15167 6.46 0.999483 6.09393 1 5.66667V2.55556C1 2.12778 1.15245 1.76145 1.45733 1.45656C1.76222 1.15167 2.1283 0.999483 2.55556 1H5.66667C6.09444 1 6.46078 1.15245 6.76567 1.45733C7.07056 1.76222 7.22274 2.1283 7.22222 2.55556V5.66667C7.22222 6.09444 7.06978 6.46078 6.76489 6.76567C6.46 7.07056 6.09393 7.22274 5.66667 7.22222H2.55556ZM2.55556 15C2.12778 15 1.76145 14.8476 1.45656 14.5427C1.15167 14.2378 0.999483 13.8717 1 13.4444V10.3333C1 9.90555 1.15245 9.53922 1.45733 9.23433C1.76222 8.92944 2.1283 8.77726 2.55556 8.77778H5.66667C6.09444 8.77778 6.46078 8.93022 6.76567 9.23511C7.07056 9.54 7.22274 9.90607 7.22222 10.3333V13.4444C7.22222 13.8722 7.06978 14.2386 6.76489 14.5434C6.46 14.8483 6.09393 15.0005 5.66667 15H2.55556Z" fill="white"/>
</svg>
