<svg width="32" height="32" viewBox="0 0 32 32" fill="none" xmlns="http://www.w3.org/2000/svg">
<path fill-rule="evenodd" clip-rule="evenodd" d="M16 32C7.163 32 0 24.837 0 16C0 7.163 7.163 0 16 0C24.837 0 32 7.163 32 16C32 24.837 24.837 32 16 32ZM18.19 26C19.183 26 20.107 25.794 20.961 25.381C21.7928 24.9906 22.4666 24.3281 22.871 23.503C23.2918 22.6563 23.5073 21.7225 23.5 20.777C23.4923 20.2836 23.4337 19.7923 23.325 19.311C23.217 18.761 22.972 18.188 22.591 17.592C22.211 16.989 21.668 16.515 20.961 16.172C20.262 15.82 19.633 15.645 19.074 15.645C18.7387 15.6741 18.4093 15.7512 18.096 15.874L23.267 10.788L22.428 9.963L13.997 9.986V6.412L13.182 6H11.016V6.595L11.761 7.329V9.986H8.5V11.155H11.76V17.432C11.76 18.348 12.025 19.074 12.553 19.608C13.081 20.143 14.036 20.41 15.418 20.41C15.977 20.41 16.489 20.257 16.955 19.952C17.421 19.646 17.785 19.204 18.05 18.623C18.0753 18.5175 18.0946 18.4107 18.108 18.303C18.1096 18.1458 18.0513 17.9938 17.945 17.878C17.828 17.795 17.728 17.753 17.642 17.753C17.5865 17.7537 17.5331 17.7738 17.491 17.81C17.4387 17.8477 17.3982 17.8993 17.374 17.959C17.1312 18.3042 16.832 18.6061 16.489 18.852C16.148 19.097 15.79 19.219 15.418 19.219C14.936 19.219 14.579 19.051 14.346 18.715C14.113 18.379 13.996 17.951 13.996 17.432V11.155H20.379L15.767 17.203V17.707L16.792 17.203C17.352 16.897 17.817 16.745 18.189 16.745C18.7483 16.7426 19.2971 16.8971 19.773 17.191C20.263 17.489 20.631 17.947 20.88 18.566C21.136 19.176 21.264 19.914 21.264 20.776C21.264 21.571 21.147 22.281 20.914 22.907C20.682 23.533 20.321 24.007 19.832 24.327C19.3445 24.6477 18.7724 24.8155 18.189 24.809C17.755 24.809 17.319 24.748 16.885 24.625C16.45 24.511 16.132 24.316 15.93 24.041C16.163 23.972 16.365 23.828 16.536 23.606C16.706 23.384 16.792 23.098 16.792 22.746C16.792 22.456 16.734 22.212 16.617 22.014C16.5029 21.8175 16.3382 21.6552 16.14 21.544C15.9104 21.423 15.6534 21.3637 15.394 21.372C15.099 21.372 14.851 21.43 14.649 21.544C14.4508 21.6552 14.2861 21.8175 14.172 22.014C14.055 22.212 13.997 22.457 13.997 22.747C13.997 23.541 14.331 24.282 14.998 24.969C15.666 25.656 16.73 26 18.189 26H18.19Z" fill="#81FEB7"/>
</svg>
