<svg width="25" height="24" viewBox="0 0 25 24" fill="none" xmlns="http://www.w3.org/2000/svg">
<path fill-rule="evenodd" clip-rule="evenodd" d="M12.6667 22C7.14353 22 2.66666 17.5231 2.66666 12C2.66666 6.47688 7.14353 2 12.6667 2C18.1898 2 22.6667 6.47688 22.6667 12C22.6667 17.5231 18.1898 22 12.6667 22ZM14.0354 18.25C14.656 18.25 15.2335 18.1213 15.7673 17.8631C16.2872 17.6191 16.7083 17.2051 16.961 16.6894C17.224 16.1602 17.3587 15.5765 17.3542 14.9856C17.3494 14.6773 17.3127 14.3702 17.2448 14.0694C17.1773 13.7256 17.0242 13.3675 16.786 12.995C16.5485 12.6181 16.2092 12.3219 15.7673 12.1075C15.3304 11.8875 14.9373 11.7781 14.5879 11.7781C14.3783 11.7963 14.1725 11.8445 13.9767 11.9212L17.2085 8.7425L16.6842 8.22688L11.4148 8.24125V6.0075L10.9054 5.75H9.55166V6.12187L10.0173 6.58063V8.24125H7.97916V8.97187H10.0167V12.895C10.0167 13.4675 10.1823 13.9213 10.5123 14.255C10.8423 14.5894 11.4392 14.7563 12.3029 14.7563C12.6523 14.7563 12.9723 14.6606 13.2635 14.47C13.5548 14.2787 13.7823 14.0025 13.9479 13.6394C13.9637 13.5734 13.9758 13.5067 13.9842 13.4394C13.9852 13.3411 13.9487 13.2461 13.8823 13.1737C13.8092 13.1219 13.7467 13.0956 13.6929 13.0956C13.6582 13.096 13.6248 13.1087 13.5985 13.1312C13.5659 13.1548 13.5405 13.1871 13.5254 13.2244C13.3737 13.4401 13.1867 13.6288 12.9723 13.7825C12.7592 13.9356 12.5354 14.0119 12.3029 14.0119C12.0017 14.0119 11.7785 13.9069 11.6329 13.6969C11.4873 13.4869 11.4142 13.2194 11.4142 12.895V8.97187H15.4035L12.521 12.7519V13.0669L13.1617 12.7519C13.5117 12.5606 13.8023 12.4656 14.0348 12.4656C14.3844 12.4641 14.7274 12.5607 15.0248 12.7444C15.331 12.9306 15.561 13.2169 15.7167 13.6038C15.8767 13.985 15.9567 14.4462 15.9567 14.985C15.9567 15.4819 15.8835 15.9256 15.7379 16.3169C15.5929 16.7081 15.3673 17.0044 15.0617 17.2044C14.757 17.4048 14.3994 17.5097 14.0348 17.5056C13.7635 17.5056 13.491 17.4675 13.2198 17.3906C12.9479 17.3194 12.7492 17.1975 12.6229 17.0256C12.7685 16.9825 12.8948 16.8925 13.0017 16.7538C13.1079 16.615 13.1617 16.4363 13.1617 16.2163C13.1617 16.035 13.1254 15.8825 13.0523 15.7587C12.981 15.6359 12.878 15.5345 12.7542 15.465C12.6107 15.3894 12.45 15.3523 12.2879 15.3575C12.1035 15.3575 11.9485 15.3938 11.8223 15.465C11.6984 15.5345 11.5955 15.6359 11.5242 15.7587C11.451 15.8825 11.4148 16.0356 11.4148 16.2169C11.4148 16.7131 11.6235 17.1763 12.0404 17.6056C12.4579 18.035 13.1235 18.25 14.0354 18.25Z" fill="#81FEB7"/>
</svg>
