<svg width="14" height="14" viewBox="0 0 14 14" fill="none" xmlns="http://www.w3.org/2000/svg">
<path d="M3.31046 5.47195L0.964075 7.81853C0.321251 8.46129 -0.0204911 9.35257 0.0142492 10.2963C0.0489895 11.2401 0.457381 12.1589 1.1491 12.8508C1.84108 13.5427 2.76002 13.9509 3.70367 13.9856C4.17099 14.0029 4.63034 13.9279 5.05546 13.7649C5.48057 13.602 5.86323 13.3543 6.18156 13.0361L7.40545 11.8121C7.53489 11.6724 7.60102 11.4839 7.59047 11.2862C7.58584 11.2009 7.56705 11.1167 7.5354 11.0369C7.49397 10.9318 7.43041 10.8344 7.34832 10.752C7.20318 10.6073 7.01172 10.5206 6.81409 10.5099C6.61645 10.4992 6.42783 10.5655 6.28809 10.6948L5.06421 11.9188C4.88253 12.1011 4.66379 12.243 4.42061 12.3364C4.17768 12.4298 3.91494 12.4728 3.64757 12.463C3.38046 12.4531 3.11386 12.3907 2.86321 12.2791C2.61257 12.1675 2.38277 12.0091 2.18719 11.8128C1.99084 11.6172 1.83258 11.3875 1.7209 11.1368C1.60947 10.8862 1.54694 10.6196 1.5369 10.3523C1.52713 10.0851 1.5701 9.82233 1.66351 9.57928C1.75693 9.33623 1.89898 9.11756 2.08117 8.93581L4.42781 6.58923L3.31046 5.47195Z" fill="#FDFDFD"/>
<path d="M5.40543 7.56685C5.35499 7.66895 5.32926 7.78411 5.33158 7.90351C5.33544 8.10095 5.41573 8.29479 5.55572 8.44437C5.89823 8.78701 6.30019 9.06358 6.73843 9.25832C6.91934 9.33874 7.10513 9.40455 7.29376 9.45531L5.40543 7.56685Z" fill="#FDFDFD"/>
<path d="M10.6893 8.52819L13.036 6.18161C13.3543 5.86335 13.6018 5.4807 13.7647 5.05558C13.9276 4.63046 14.0028 4.17111 13.9855 3.70379C13.9683 3.23653 13.8592 2.77044 13.6646 2.33213C13.4698 1.89382 13.1932 1.49186 12.8507 1.14928C12.5082 0.806707 12.1062 0.530199 11.668 0.335461C11.2295 0.140722 10.7634 0.0316757 10.2961 0.0144343C9.82878 -0.0027429 9.36943 0.0722704 8.94431 0.235228C8.51919 0.398122 8.13654 0.645807 7.81847 0.964067L6.59432 2.18808C6.46514 2.32775 6.39875 2.51625 6.40956 2.71389C6.42011 2.91158 6.50709 3.10304 6.65171 3.24805C6.74692 3.34307 6.86221 3.41313 6.98599 3.45308C7.05084 3.47393 7.118 3.4866 7.18594 3.49027C7.38357 3.50095 7.57194 3.43468 7.71168 3.30537L8.93556 2.08135C9.30767 1.7326 9.81179 1.55279 10.3414 1.58019C10.8707 1.60754 11.3841 1.83991 11.7722 2.22791C12.1602 2.61597 12.3924 3.12916 12.4199 3.65869C12.4472 4.18823 12.2673 4.69241 11.9186 5.06433L9.57195 7.41078L10.6893 8.52819Z" fill="#FDFDFD"/>
<path d="M8.59459 6.43322C8.64503 6.33113 8.67077 6.21603 8.66845 6.09663C8.66459 5.89919 8.5843 5.70529 8.44431 5.55571C8.1018 5.21313 7.69984 4.93656 7.26159 4.74182C7.08043 4.6614 6.89489 4.59559 6.70626 4.54483L8.59459 6.43322Z" fill="#FDFDFD"/>
<path fill-rule="evenodd" clip-rule="evenodd" d="M0.231542 0.231542C0.540266 -0.0771808 1.0408 -0.0771808 1.34953 0.231542L13.7685 12.6505C14.0772 12.9592 14.0772 13.4597 13.7685 13.7685C13.4597 14.0772 12.9592 14.0772 12.6505 13.7685L0.231542 1.34953C-0.0771808 1.0408 -0.0771808 0.540266 0.231542 0.231542Z" fill="#FDFDFD"/>
</svg>
