<svg width="16" height="16" viewBox="0 0 16 16" fill="none" xmlns="http://www.w3.org/2000/svg">
<path d="M4.31046 6.47195L1.96408 8.81853C1.32125 9.46129 0.979509 10.3526 1.01425 11.2963C1.04899 12.2401 1.45738 13.1589 2.1491 13.8508C2.84108 14.5427 3.76002 14.9509 4.70367 14.9856C5.17099 15.0029 5.63034 14.9279 6.05546 14.7649C6.48057 14.602 6.86323 14.3543 7.18156 14.0361L8.40545 12.8121C8.53489 12.6724 8.60102 12.4839 8.59047 12.2862C8.58584 12.2009 8.56705 12.1167 8.5354 12.0369C8.49397 11.9318 8.43041 11.8344 8.34832 11.752C8.20318 11.6073 8.01172 11.5206 7.81409 11.5099C7.61645 11.4992 7.42783 11.5655 7.28809 11.6948L6.06421 12.9188C5.88253 13.1011 5.66379 13.243 5.42061 13.3364C5.17768 13.4298 4.91494 13.4728 4.64757 13.463C4.38046 13.4531 4.11386 13.3907 3.86321 13.2791C3.61257 13.1675 3.38277 13.0091 3.18719 12.8128C2.99084 12.6172 2.83258 12.3875 2.7209 12.1368C2.60947 11.8862 2.54694 11.6196 2.5369 11.3523C2.52713 11.0851 2.5701 10.8223 2.66351 10.5793C2.75693 10.3362 2.89898 10.1176 3.08117 9.93581L5.42781 7.58923L4.31046 6.47195Z" fill="#81FEB7"/>
<path d="M6.40543 8.56685C6.35499 8.66895 6.32926 8.78411 6.33158 8.90351C6.33544 9.10095 6.41573 9.29479 6.55572 9.44437C6.89823 9.78701 7.30019 10.0636 7.73843 10.2583C7.91934 10.3387 8.10513 10.4045 8.29376 10.4553L6.40543 8.56685Z" fill="#81FEB7"/>
<path d="M11.6893 9.52819L14.036 7.18161C14.3543 6.86335 14.6018 6.4807 14.7647 6.05558C14.9276 5.63046 15.0028 5.17111 14.9855 4.70379C14.9683 4.23653 14.8592 3.77044 14.6646 3.33213C14.4698 2.89382 14.1932 2.49186 13.8507 2.14928C13.5082 1.80671 13.1062 1.5302 12.668 1.33546C12.2295 1.14072 11.7634 1.03168 11.2961 1.01443C10.8288 0.997257 10.3694 1.07227 9.94431 1.23523C9.51919 1.39812 9.13654 1.64581 8.81847 1.96407L7.59432 3.18808C7.46514 3.32775 7.39875 3.51625 7.40956 3.71389C7.42011 3.91158 7.50709 4.10304 7.65171 4.24805C7.74692 4.34307 7.86221 4.41313 7.98599 4.45308C8.05084 4.47393 8.118 4.4866 8.18594 4.49027C8.38357 4.50095 8.57194 4.43468 8.71168 4.30537L9.93556 3.08135C10.3077 2.7326 10.8118 2.55279 11.3414 2.58019C11.8707 2.60754 12.3841 2.83991 12.7722 3.22791C13.1602 3.61597 13.3924 4.12916 13.4199 4.65869C13.4472 5.18823 13.2673 5.69241 12.9186 6.06433L10.572 8.41078L11.6893 9.52819Z" fill="#81FEB7"/>
<path d="M9.59459 7.43322C9.64503 7.33113 9.67077 7.21603 9.66845 7.09663C9.66459 6.89919 9.5843 6.70529 9.44431 6.55571C9.1018 6.21313 8.69984 5.93656 8.26159 5.74182C8.08043 5.6614 7.89489 5.59559 7.70626 5.54483L9.59459 7.43322Z" fill="#81FEB7"/>
<path fill-rule="evenodd" clip-rule="evenodd" d="M1.23154 1.23154C1.54027 0.922819 2.0408 0.922819 2.34953 1.23154L14.7685 13.6505C15.0772 13.9592 15.0772 14.4597 14.7685 14.7685C14.4597 15.0772 13.9592 15.0772 13.6505 14.7685L1.23154 2.34953C0.922819 2.0408 0.922819 1.54027 1.23154 1.23154Z" fill="#81FEB7"/>
</svg>
