<svg fill="none" height="22" viewBox="0 0 22 22" width="22" xmlns="http://www.w3.org/2000/svg"><path d="m5.43248 5.60255c1.20915-1.20916 3.17491-1.20916 4.38406 0l2.82846 2.82842 1.3435-1.3435-2.8285-2.82843c-1.95157-1.95161-5.11941-1.95161-7.07102 0-1.95162 1.95162-1.95162 5.11946 0 7.07106l2.82842 2.8284 1.34351-1.3435-2.82843-2.82839c-1.20915-1.20915-1.20915-3.17491 0-4.38406zm2.19203 3.60624 5.65689 5.65681 1.4142-1.4142-5.65687-5.65682zm10.60659 2.12131-2.8284-2.82841-1.3435 1.3435 2.8284 2.82841c1.2092 1.2092 1.2092 3.1749 0 4.3841-1.2091 1.2091-3.1749 1.2091-4.3841 0l-2.82838-2.8284-1.3435 1.3435 2.82838 2.8284c1.9517 1.9516 5.1195 1.9516 7.0711 0s1.9516-5.1195 0-7.0711z" fill="#81feb7"/></svg>