<svg width="28" height="21" viewBox="0 0 28 21" fill="none" xmlns="http://www.w3.org/2000/svg">
<path d="M23.3578 1.78713C21.6124 0.999984 19.7415 0.41818 17.7851 0.0873499C17.7676 0.084005 17.7496 0.0861606 17.7335 0.0935185C17.7173 0.100877 17.7038 0.113073 17.6949 0.128418C17.4554 0.549371 17.1884 1.09809 17.0013 1.53159C14.9263 1.22157 12.8168 1.22157 10.7418 1.53159C10.5334 1.05116 10.2984 0.58271 10.0379 0.128418C10.0291 0.112884 10.0158 0.100412 9.99965 0.0926661C9.98355 0.0849206 9.96547 0.08227 9.94782 0.0850682C7.9925 0.415898 6.1216 0.997702 4.37505 1.78599C4.36002 1.79229 4.34729 1.80304 4.33855 1.81679C0.7884 7.03592 -0.184696 12.1261 0.293296 17.1525C0.294626 17.1648 0.298448 17.1767 0.304527 17.1875C0.310607 17.1983 0.318818 17.2077 0.328661 17.2152C2.40079 18.7238 4.71197 19.873 7.16543 20.6148C7.18253 20.62 7.20083 20.62 7.21792 20.6147C7.23501 20.6094 7.25012 20.5991 7.26126 20.5851C7.7883 19.8778 8.25831 19.1306 8.65987 18.3457C8.68382 18.3001 8.66101 18.2453 8.61309 18.2271C7.87615 17.9496 7.1621 17.6147 6.47753 17.2255C6.46523 17.2185 6.45486 17.2085 6.44737 17.1965C6.43987 17.1845 6.43547 17.1708 6.43456 17.1566C6.43366 17.1425 6.43628 17.1284 6.44218 17.1155C6.44809 17.1026 6.4571 17.0914 6.4684 17.0829C6.61214 16.9768 6.75588 16.8661 6.89278 16.7555C6.9051 16.7455 6.91994 16.7392 6.93566 16.7372C6.95137 16.7352 6.96733 16.7375 6.98176 16.7441C11.4617 18.7564 16.3134 18.7564 20.7409 16.7441C20.7553 16.7372 20.7715 16.7345 20.7874 16.7363C20.8033 16.7381 20.8184 16.7443 20.831 16.7543C20.9679 16.8661 21.1105 16.9768 21.2554 17.0829C21.2668 17.0912 21.2759 17.1023 21.282 17.115C21.2881 17.1278 21.291 17.1419 21.2903 17.156C21.2896 17.1701 21.2854 17.1839 21.2781 17.196C21.2708 17.2081 21.2607 17.2182 21.2485 17.2255C20.5663 17.6179 19.8567 17.9499 19.1118 18.2259C19.1004 18.2301 19.0899 18.2366 19.0812 18.2451C19.0725 18.2536 19.0657 18.2639 19.0613 18.2752C19.0569 18.2866 19.0549 18.2987 19.0556 18.3109C19.0562 18.323 19.0594 18.3349 19.065 18.3457C19.4757 19.1295 19.9457 19.8755 20.4625 20.584C20.4732 20.5985 20.4882 20.6094 20.5054 20.6151C20.5225 20.6208 20.541 20.6211 20.5583 20.6159C23.016 19.8763 25.331 18.7265 27.4054 17.2152C27.4155 17.2081 27.424 17.199 27.4303 17.1883C27.4366 17.1777 27.4405 17.1659 27.4419 17.1536C28.0123 11.3424 26.4859 6.29326 23.3932 1.81907C23.3856 1.80453 23.3731 1.7932 23.3578 1.78713ZM9.32951 14.0917C7.9811 14.0917 6.86882 12.8722 6.86882 11.3766C6.86882 9.87991 7.95942 8.66154 9.32951 8.66154C10.7099 8.66154 11.8119 9.89018 11.7902 11.3766C11.7902 12.8733 10.6996 14.0917 9.32951 14.0917ZM18.4273 14.0917C17.0778 14.0917 15.9666 12.8722 15.9666 11.3766C15.9666 9.87991 17.0561 8.66154 18.4273 8.66154C19.8077 8.66154 20.9097 9.89018 20.888 11.3766C20.888 12.8733 19.8088 14.0917 18.4273 14.0917Z" fill="#81FEB7"/>
</svg>
