<svg width="14" height="14" viewBox="0 0 14 14" fill="none" xmlns="http://www.w3.org/2000/svg">
<path d="M7 7.7C6.80167 7.7 6.6353 7.6328 6.5009 7.4984C6.3665 7.364 6.29953 7.19787 6.3 7C6.3 6.80167 6.3672 6.6353 6.5016 6.5009C6.636 6.3665 6.80213 6.29953 7 6.3C7.19833 6.3 7.3647 6.3672 7.4991 6.5016C7.6335 6.636 7.70047 6.80213 7.7 7C7.7 7.19833 7.6328 7.3647 7.4984 7.4991C7.364 7.6335 7.19787 7.70047 7 7.7ZM7 14C6.03167 14 5.12167 13.8161 4.27 13.4484C3.41833 13.0807 2.6775 12.582 2.0475 11.9525C1.4175 11.3225 0.918867 10.5817 0.5516 9.73C0.184333 8.87833 0.000466667 7.96833 0 7C0 6.03167 0.183867 5.12167 0.5516 4.27C0.919333 3.41833 1.41797 2.6775 2.0475 2.0475C2.6775 1.4175 3.41833 0.918867 4.27 0.5516C5.12167 0.184333 6.03167 0.000466667 7 0C7.96833 0 8.87833 0.183867 9.73 0.5516C10.5817 0.919333 11.3225 1.41797 11.9525 2.0475C12.5825 2.6775 13.0814 3.41833 13.4491 4.27C13.8168 5.12167 14.0005 6.03167 14 7C14 7.96833 13.8161 8.87833 13.4484 9.73C13.0807 10.5817 12.582 11.3225 11.9525 11.9525C11.3225 12.5825 10.5817 13.0814 9.73 13.4491C8.87833 13.8168 7.96833 14.0005 7 14ZM7 12.6C8.56333 12.6 9.8875 12.0575 10.9725 10.9725C12.0575 9.8875 12.6 8.56333 12.6 7C12.6 5.43667 12.0575 4.1125 10.9725 3.0275C9.8875 1.9425 8.56333 1.4 7 1.4C5.43667 1.4 4.1125 1.9425 3.0275 3.0275C1.9425 4.1125 1.4 5.43667 1.4 7C1.4 8.56333 1.9425 9.8875 3.0275 10.9725C4.1125 12.0575 5.43667 12.6 7 12.6ZM7 12.6C5.43667 12.6 4.1125 12.0575 3.0275 10.9725C1.9425 9.8875 1.4 8.56333 1.4 7C1.4 5.43667 1.9425 4.1125 3.0275 3.0275C4.1125 1.9425 5.43667 1.4 7 1.4C8.56333 1.4 9.8875 1.9425 10.9725 3.0275C12.0575 4.1125 12.6 5.43667 12.6 7C12.6 8.56333 12.0575 9.8875 10.9725 10.9725C9.8875 12.0575 8.56333 12.6 7 12.6ZM8.1725 8.505C8.2425 8.47 8.30667 8.42333 8.365 8.365C8.42333 8.30667 8.47 8.2425 8.505 8.1725L10.5525 3.7975C10.6108 3.68083 10.5961 3.57863 10.5084 3.4909C10.4207 3.40317 10.3187 3.3887 10.2025 3.4475L5.8275 5.495C5.7575 5.53 5.69333 5.57667 5.635 5.635C5.57667 5.69333 5.53 5.7575 5.495 5.8275L3.4475 10.2025C3.38917 10.3192 3.40387 10.4214 3.4916 10.5091C3.57933 10.5968 3.6813 10.6113 3.7975 10.5525L8.1725 8.505Z" fill="white"/>
</svg>
