<svg width="14" height="14" viewBox="0 0 14 14" fill="none" xmlns="http://www.w3.org/2000/svg">
<path fill-rule="evenodd" clip-rule="evenodd" d="M7 14C3.13381 14 0 10.8662 0 7C0 3.13381 3.13381 0 7 0C10.8662 0 14 3.13381 14 7C14 10.8662 10.8662 14 7 14ZM7.95813 11.375C8.39256 11.375 8.79681 11.2849 9.17044 11.1042C9.53437 10.9334 9.82915 10.6436 10.0061 10.2826C10.1902 9.91215 10.2844 9.50357 10.2812 9.08994C10.2779 8.87408 10.2522 8.65915 10.2047 8.44856C10.1574 8.20794 10.0503 7.95725 9.88356 7.6965C9.71731 7.43269 9.47975 7.22531 9.17044 7.07525C8.86462 6.92125 8.58944 6.84469 8.34487 6.84469C8.19818 6.8574 8.05408 6.89114 7.917 6.94487L10.1793 4.71975L9.81225 4.35881L6.12369 4.36888V2.80525L5.76713 2.625H4.8195V2.88531L5.14544 3.20644V4.36888H3.71875V4.88031H5.145V7.6265C5.145 8.02725 5.26094 8.34488 5.49194 8.5785C5.72294 8.81256 6.14075 8.92937 6.74538 8.92937C6.98994 8.92937 7.21394 8.86244 7.41781 8.729C7.62169 8.59512 7.78094 8.40175 7.89687 8.14756C7.90793 8.1014 7.9164 8.05466 7.92225 8.00756C7.92296 7.93878 7.89746 7.8723 7.85094 7.82162C7.79975 7.78531 7.756 7.76694 7.71837 7.76694C7.69411 7.76723 7.67072 7.77606 7.65231 7.79187C7.62945 7.80835 7.61171 7.83095 7.60113 7.85706C7.4949 8.0081 7.36401 8.14017 7.21394 8.24775C7.06475 8.35494 6.90813 8.40831 6.74538 8.40831C6.5345 8.40831 6.37831 8.33481 6.27637 8.18781C6.17444 8.04081 6.12325 7.85356 6.12325 7.6265V4.88031H8.91581L6.89806 7.52631V7.74681L7.3465 7.52631C7.5915 7.39244 7.79494 7.32594 7.95769 7.32594C8.20239 7.32488 8.44249 7.39248 8.65069 7.52106C8.86506 7.65144 9.02606 7.85181 9.135 8.12263C9.247 8.3895 9.303 8.71237 9.303 9.0895C9.303 9.43731 9.25181 9.74794 9.14987 10.0218C9.04838 10.2957 8.89044 10.5031 8.6765 10.6431C8.46324 10.7834 8.21294 10.8568 7.95769 10.8539C7.76781 10.8539 7.57706 10.8272 7.38719 10.7734C7.19688 10.7236 7.05775 10.6383 6.96938 10.5179C7.07131 10.4878 7.15969 10.4248 7.2345 10.3276C7.30887 10.2305 7.3465 10.1054 7.3465 9.95138C7.3465 9.8245 7.32113 9.71775 7.26994 9.63112C7.22002 9.54515 7.14796 9.47414 7.06125 9.4255C6.96082 9.37255 6.84835 9.34662 6.73488 9.35025C6.60581 9.35025 6.49731 9.37562 6.40894 9.4255C6.32223 9.47414 6.25016 9.54515 6.20025 9.63112C6.14906 9.71775 6.12369 9.82494 6.12369 9.95181C6.12369 10.2992 6.26981 10.6234 6.56162 10.9239C6.85387 11.2245 7.31937 11.375 7.95769 11.375H7.95813Z" fill="white"/>
</svg>
