<svg width="24" height="24" viewBox="0 0 24 24" fill="none" xmlns="http://www.w3.org/2000/svg">
<g opacity="0.65">
<path d="M7.56544 12.6652C7.56544 11.6926 8.2521 10.8924 9.1227 10.8924C9.9933 10.8924 10.6948 11.6911 10.68 12.6652C10.6813 13.6379 9.9933 14.4366 9.1227 14.4366C8.26712 14.4366 7.56544 13.6379 7.56544 12.6652Z" fill="white"/>
<path d="M13.3202 12.6652C13.3202 11.6926 14.0068 10.8924 14.8774 10.8924C15.748 10.8924 16.4496 11.6911 16.4347 12.6652C16.4347 13.6379 15.748 14.4366 14.8774 14.4366C14.0219 14.4366 13.3202 13.6379 13.3202 12.6652Z" fill="white"/>
<path fill-rule="evenodd" clip-rule="evenodd" d="M6.1154 0.923096H17.8846C20.7523 0.923096 23.0769 3.24777 23.0769 6.1154V17.8846C23.0769 20.7523 20.7523 23.0769 17.8846 23.0769H6.1154C3.24777 23.0769 0.923096 20.7523 0.923096 17.8846V6.1154C0.923096 3.24777 3.24777 0.923096 6.1154 0.923096ZM18.0124 6.41876C16.8764 5.88723 15.6746 5.50955 14.4387 5.29572C14.2703 5.60465 14.1175 5.92188 13.981 6.24618C12.6485 6.04586 11.3284 6.04586 10.0205 6.24618C9.89652 5.9484 9.71257 5.57401 9.55732 5.29572C8.32025 5.50962 7.11741 5.88824 5.98085 6.42146C3.71921 9.83903 3.10619 13.1717 3.41291 16.457C4.9129 17.5772 6.36648 18.2577 7.79568 18.703C8.15087 18.2145 8.46484 17.6974 8.73437 17.157C8.22121 16.9616 7.72652 16.7209 7.25616 16.4376C7.38014 16.3458 7.50142 16.2497 7.61864 16.1509C10.4687 17.4841 13.5654 17.4841 16.3815 16.1509C16.4998 16.2496 16.6206 16.3451 16.7438 16.4376C16.2728 16.7216 15.7772 16.9629 15.2631 17.1585C15.5324 17.699 15.8464 18.2161 16.2017 18.7043C17.6323 18.259 19.0872 17.5786 20.5872 16.457C20.9469 12.6484 19.9728 9.34647 18.0124 6.41876Z" fill="white"/>
</g>
</svg>
