<svg width="154" height="22" viewBox="0 0 154 22" fill="none" xmlns="http://www.w3.org/2000/svg">
<path d="M25.6206 14.1829H0.196174C0.0517947 14.1829 -0.0444581 14.3342 0.0208563 14.4648L0.911194 16.2489C1.0762 16.5789 1.41652 16.7886 1.78434 16.7886H24.0256C24.3969 16.7886 24.7337 16.5789 24.8988 16.2489L25.7891 14.4648C25.8544 14.3342 25.7582 14.1829 25.6138 14.1829H25.6206Z" fill="white"/>
<path d="M9.06518 21.2678C9.43644 21.7319 9.99677 22 10.5915 22H15.2254C15.8201 22 16.3804 21.7284 16.7516 21.2678L17.4667 20.374H8.34672L9.06174 21.2678H9.06518Z" fill="white"/>
<path d="M4.6238 18.8993C4.91256 19.4081 5.45226 19.7209 6.03665 19.7209H19.7802C20.3646 19.7209 20.9043 19.4081 21.193 18.8993L22.0284 17.4383H3.78846L4.6238 18.8993Z" fill="white"/>
<path d="M22.6781 2.60507C22.6781 2.51226 22.6299 2.42632 22.5509 2.38163L18.577 0.0268719C18.4464 -0.0487552 18.2814 0.0440599 18.2814 0.195314V13.5332H22.6781V2.60507Z" fill="white"/>
<path d="M7.53545 4.02136C7.53545 3.87698 7.41857 3.7601 7.27419 3.7601H6.82043V3.36822C6.82043 3.22384 6.70355 3.10696 6.55917 3.10696H5.67914V2.64976C5.67914 2.54319 5.5932 2.45382 5.4832 2.45382H5.22194C5.11538 2.45382 5.026 2.53976 5.026 2.64976V3.10696H4.14597C4.0016 3.10696 3.88472 3.22384 3.88472 3.36822V3.7601H3.39314C3.24876 3.7601 3.13188 3.87698 3.13188 4.02136V13.5332H7.52857V4.02136H7.53545Z" fill="white"/>
<path d="M17.6317 5.97392C17.6317 5.82954 17.5148 5.71266 17.3704 5.71266H16.9785V5.32077C16.9785 5.17639 16.8617 5.05952 16.7173 5.05952H14.9572C14.8128 5.05952 14.696 5.17639 14.696 5.32077V5.71266H14.3041C14.1597 5.71266 14.0428 5.82954 14.0428 5.97392V13.5298H17.6248V5.97392H17.6317Z" fill="white"/>
<path d="M13.3966 9.75184C13.3966 9.66934 13.3587 9.59371 13.2934 9.54214L10.9868 7.80959C10.8699 7.72365 10.7118 7.72365 10.5949 7.80959L8.28828 9.54214C8.22297 9.59027 8.18515 9.66934 8.18515 9.75184V13.5298H13.3966V9.75184Z" fill="white"/>
<path d="M141.331 13.6372V13.2935C141.331 11.5962 141.915 10.2355 143.082 9.21143C144.257 8.18018 145.775 7.66455 147.637 7.66455C149.499 7.66455 150.953 8.14795 151.998 9.11475C153.044 10.0815 153.567 11.4172 153.567 13.1216V14.228H143.372V12.2837H150.333V12.1763C150.333 11.5532 150.115 11.0376 149.678 10.6294C149.248 10.2212 148.554 10.0171 147.594 10.0171C146.627 10.0171 145.886 10.2964 145.37 10.855C144.855 11.4064 144.597 12.144 144.597 13.0679V13.7769C144.597 14.7365 144.869 15.4956 145.413 16.0542C145.965 16.6056 146.781 16.8813 147.863 16.8813C148.579 16.8813 149.195 16.7453 149.71 16.4731C150.233 16.1938 150.645 15.8608 150.946 15.4741L153.384 16.8169C152.983 17.5474 152.31 18.1418 151.364 18.6001C150.426 19.0584 149.277 19.2876 147.916 19.2876C145.847 19.2876 144.232 18.7756 143.072 17.7515C141.911 16.7202 141.331 15.3488 141.331 13.6372Z" fill="white"/>
<path d="M128.516 15.4849L131.674 15.5063V15.689C131.674 16.2046 131.903 16.577 132.362 16.8062C132.827 17.0282 133.45 17.1392 134.231 17.1392C135.011 17.1392 135.602 17.0353 136.003 16.8276C136.411 16.6128 136.615 16.3228 136.615 15.9575C136.615 15.5851 136.408 15.3094 135.992 15.1304C135.577 14.9513 134.682 14.7437 133.307 14.5073C131.76 14.2424 130.646 13.8306 129.966 13.272C129.286 12.7134 128.946 11.9829 128.946 11.0806C128.946 10.0135 129.425 9.17562 130.385 8.56689C131.345 7.95817 132.652 7.65381 134.306 7.65381C135.953 7.65381 137.264 7.97607 138.238 8.62061C139.219 9.26514 139.709 10.1317 139.709 11.2202V11.3706H136.562V11.1987C136.562 10.7547 136.372 10.4181 135.992 10.189C135.62 9.95264 135.047 9.83447 134.274 9.83447C133.522 9.83447 132.977 9.92757 132.641 10.1138C132.311 10.2928 132.147 10.5399 132.147 10.855C132.147 11.1701 132.344 11.4172 132.738 11.5962C133.131 11.7752 134.023 11.9829 135.412 12.2192C136.974 12.4842 138.112 12.8888 138.828 13.4331C139.552 13.9702 139.913 14.7114 139.913 15.6567C139.913 16.8097 139.434 17.7049 138.474 18.3423C137.514 18.9725 136.111 19.2876 134.263 19.2876C132.43 19.2876 131.015 18.9689 130.02 18.3315C129.024 17.6942 128.523 16.7918 128.516 15.6245V15.4849Z" fill="white"/>
<path d="M114.626 15.7534C114.626 14.5503 115.153 13.6408 116.205 13.0249C117.265 12.4019 118.615 12.0868 120.255 12.0796H123.156V11.4458C123.156 10.9517 122.984 10.5578 122.64 10.2642C122.303 9.96338 121.712 9.81299 120.867 9.81299C120.03 9.81299 119.428 9.93831 119.063 10.189C118.698 10.4325 118.515 10.744 118.515 11.1235V11.3062L115.324 11.2954V11.1128C115.324 10.1102 115.847 9.28662 116.893 8.64209C117.946 7.99756 119.328 7.67529 121.039 7.67529C122.758 7.67529 124.09 7.98324 125.035 8.59912C125.981 9.21501 126.453 10.1782 126.453 11.4888V16.4946C126.453 16.9458 126.5 17.3755 126.593 17.7837C126.686 18.1847 126.811 18.5249 126.969 18.8042V18.9761H123.725C123.625 18.8114 123.535 18.6001 123.456 18.3423C123.378 18.0773 123.324 17.8159 123.295 17.5581C123.03 17.9878 122.522 18.3638 121.77 18.686C121.018 19.0083 120.083 19.1694 118.966 19.1694C117.72 19.1694 116.685 18.8866 115.862 18.3208C115.038 17.7479 114.626 16.8921 114.626 15.7534ZM117.924 15.4741C117.924 15.9539 118.107 16.3371 118.472 16.6235C118.844 16.9028 119.424 17.0425 120.212 17.0425C121.029 17.0425 121.723 16.8384 122.296 16.4302C122.869 16.022 123.156 15.5422 123.156 14.9907V13.981H120.9C119.897 13.981 119.149 14.1063 118.655 14.3569C118.168 14.6076 117.924 14.98 117.924 15.4741Z" fill="white"/>
<path d="M100.683 18.9761V2.7124H103.981V9.27588C104.41 8.79606 104.948 8.42367 105.592 8.15869C106.244 7.88656 107.01 7.75049 107.891 7.75049C109.502 7.75049 110.784 8.26253 111.737 9.28662C112.696 10.3107 113.176 11.6392 113.176 13.272V13.6157C113.176 15.2557 112.693 16.5949 111.726 17.6333C110.766 18.6717 109.481 19.1909 107.869 19.1909C106.989 19.1909 106.194 19.0441 105.485 18.7505C104.776 18.4569 104.26 18.0773 103.938 17.6118H103.916L103.841 18.9761H100.683ZM103.981 15.1089C104.196 15.5457 104.543 15.9325 105.023 16.269C105.51 16.5985 106.129 16.7632 106.881 16.7632C107.877 16.7632 108.611 16.4839 109.083 15.9253C109.563 15.3595 109.803 14.6291 109.803 13.7339V13.186C109.803 12.2909 109.563 11.5711 109.083 11.0269C108.611 10.4754 107.866 10.1997 106.849 10.1997C106.126 10.1997 105.517 10.3644 105.023 10.6938C104.536 11.0233 104.188 11.4064 103.981 11.8433V15.1089Z" fill="white"/>
<path d="M86.5891 13.6372V13.2935C86.5891 11.5962 87.1728 10.2355 88.3401 9.21143C89.5146 8.18018 91.0328 7.66455 92.8948 7.66455C94.7568 7.66455 96.2105 8.14795 97.2561 9.11475C98.3017 10.0815 98.8245 11.4172 98.8245 13.1216V14.228H88.6301V12.2837H95.5911V12.1763C95.5911 11.5532 95.3726 11.0376 94.9358 10.6294C94.5061 10.2212 93.8114 10.0171 92.8518 10.0171C91.885 10.0171 91.1438 10.2964 90.6282 10.855C90.1125 11.4064 89.8547 12.144 89.8547 13.0679V13.7769C89.8547 14.7365 90.1269 15.4956 90.6711 16.0542C91.2226 16.6056 92.039 16.8813 93.1204 16.8813C93.8365 16.8813 94.4524 16.7453 94.968 16.4731C95.4908 16.1938 95.9026 15.8608 96.2034 15.4741L98.6418 16.8169C98.2408 17.5474 97.5676 18.1418 96.6223 18.6001C95.6842 19.0584 94.5347 19.2876 93.1741 19.2876C91.1044 19.2876 89.4895 18.7756 88.3293 17.7515C87.1692 16.7202 86.5891 15.3488 86.5891 13.6372Z" fill="white"/>
<path d="M65.1047 18.9761V7.98682H68.2629L68.3381 9.56592H68.3704C68.8215 8.95003 69.3837 8.49528 70.0569 8.20166C70.7372 7.90088 71.4856 7.75049 72.302 7.75049C73.1829 7.75049 73.9456 7.92594 74.5901 8.27686C75.2418 8.62777 75.7144 9.14339 76.0081 9.82373H76.0295C76.5022 9.14339 77.1324 8.62777 77.9202 8.27686C78.7151 7.92594 79.5673 7.75049 80.4768 7.75049C81.7372 7.75049 82.7577 8.1193 83.5383 8.85693C84.3189 9.59456 84.7092 10.8299 84.7092 12.563V18.9761H81.4006V12.5522C81.3935 11.7573 81.2037 11.1772 80.8313 10.812C80.4661 10.4468 79.929 10.2642 79.22 10.2642C78.6184 10.257 78.0956 10.4074 77.6516 10.7153C77.2076 11.0233 76.8459 11.4351 76.5667 11.9507V18.9761H73.2473V12.5845C73.2402 11.7681 73.0504 11.1772 72.678 10.812C72.3127 10.4468 71.7685 10.2642 71.0452 10.2642C70.4436 10.2642 69.9208 10.4146 69.4768 10.7153C69.04 11.0161 68.6855 11.4279 68.4133 11.9507V18.9761H65.1047Z" fill="white"/>
<path d="M50.0657 13.6372V13.2935C50.0657 11.5747 50.6672 10.2069 51.8704 9.18994C53.0735 8.16585 54.649 7.65381 56.5969 7.65381C58.5448 7.65381 60.1204 8.16585 61.3235 9.18994C62.5266 10.2069 63.1282 11.5747 63.1282 13.2935V13.6372C63.1282 15.3631 62.5266 16.7381 61.3235 17.7622C60.1204 18.7791 58.5448 19.2876 56.5969 19.2876C54.649 19.2876 53.0735 18.7791 51.8704 17.7622C50.6672 16.7381 50.0657 15.3631 50.0657 13.6372ZM53.4387 13.1323V13.7983C53.4387 14.7723 53.7109 15.5207 54.2551 16.0435C54.7994 16.5662 55.58 16.8276 56.5969 16.8276C57.6138 16.8276 58.3944 16.5662 58.9387 16.0435C59.483 15.5207 59.7551 14.7723 59.7551 13.7983V13.1323C59.7551 12.1584 59.4794 11.4136 58.928 10.8979C58.3765 10.3752 57.5995 10.1138 56.5969 10.1138C55.5872 10.1138 54.8066 10.3752 54.2551 10.8979C53.7109 11.4136 53.4387 12.1584 53.4387 13.1323Z" fill="white"/>
<path d="M34.0598 18.9761V3.33545H37.4758V9.56592H44.4583V3.33545H47.8635V18.9761H44.4583V12.2515H37.4758V18.9761H34.0598Z" fill="white"/>
</svg>
