<svg width="14" height="14" viewBox="0 0 14 14" fill="none" xmlns="http://www.w3.org/2000/svg">
<path d="M6.3 8.4H7.7C7.89833 8.4 8.0647 8.3328 8.1991 8.1984C8.3335 8.064 8.40047 7.89787 8.4 7.7C8.4 7.50167 8.3328 7.3353 8.1984 7.2009C8.064 7.0665 7.89787 6.99953 7.7 7H6.3C6.10167 7 5.9353 7.0672 5.8009 7.2016C5.6665 7.336 5.59953 7.50213 5.6 7.7C5.6 7.89833 5.6672 8.0647 5.8016 8.1991C5.936 8.3335 6.10213 8.40047 6.3 8.4ZM6.3 6.3H10.5C10.6983 6.3 10.8647 6.2328 10.9991 6.0984C11.1335 5.964 11.2005 5.79787 11.2 5.6C11.2 5.40167 11.1328 5.2353 10.9984 5.1009C10.864 4.9665 10.6979 4.89953 10.5 4.9H6.3C6.10167 4.9 5.9353 4.9672 5.8009 5.1016C5.6665 5.236 5.59953 5.40213 5.6 5.6C5.6 5.79833 5.6672 5.9647 5.8016 6.0991C5.936 6.2335 6.10213 6.30047 6.3 6.3ZM6.3 4.2H10.5C10.6983 4.2 10.8647 4.1328 10.9991 3.9984C11.1335 3.864 11.2005 3.69787 11.2 3.5C11.2 3.30167 11.1328 3.1353 10.9984 3.0009C10.864 2.8665 10.6979 2.79953 10.5 2.8H6.3C6.10167 2.8 5.9353 2.8672 5.8009 3.0016C5.6665 3.136 5.59953 3.30213 5.6 3.5C5.6 3.69833 5.6672 3.8647 5.8016 3.9991C5.936 4.1335 6.10213 4.20047 6.3 4.2ZM4.2 11.2C3.815 11.2 3.4853 11.0628 3.2109 10.7884C2.9365 10.514 2.79953 10.1845 2.8 9.8V1.4C2.8 1.015 2.9372 0.685301 3.2116 0.410901C3.486 0.136501 3.81547 -0.000465478 4.2 1.18846e-06H12.6C12.985 1.18846e-06 13.3147 0.137201 13.5891 0.411601C13.8635 0.686001 14.0005 1.01547 14 1.4V9.8C14 10.185 13.8628 10.5147 13.5884 10.7891C13.314 11.0635 12.9845 11.2005 12.6 11.2H4.2ZM1.4 14C1.015 14 0.685301 13.8628 0.410901 13.5884C0.136501 13.314 -0.000465478 12.9845 1.18846e-06 12.6V3.5C1.18846e-06 3.30167 0.0672012 3.1353 0.201601 3.0009C0.336001 2.8665 0.502134 2.79953 0.700001 2.8C0.898334 2.8 1.0647 2.8672 1.1991 3.0016C1.3335 3.136 1.40047 3.30213 1.4 3.5V12.6H10.5C10.6983 12.6 10.8647 12.6672 10.9991 12.8016C11.1335 12.936 11.2005 13.1021 11.2 13.3C11.2 13.4983 11.1328 13.6647 10.9984 13.7991C10.864 13.9335 10.6979 14.0005 10.5 14H1.4Z" fill="white"/>
</svg>
