<svg width="24" height="24" viewBox="0 0 24 24" fill="none" xmlns="http://www.w3.org/2000/svg">
<path opacity="0.65" fill-rule="evenodd" clip-rule="evenodd" d="M11.9999 0.923096C5.72512 0.923096 0.642822 6.0054 0.642822 12.2802C0.642822 17.3057 3.89379 21.5504 8.40824 23.0552C8.97609 23.1546 9.18904 22.8139 9.18904 22.5158C9.18904 22.2461 9.17484 21.3517 9.17484 20.4005C6.32137 20.9258 5.58316 19.7049 5.35602 19.0661C5.22825 18.7395 4.67459 17.7316 4.19192 17.4619C3.79442 17.2489 3.22656 16.7237 4.17772 16.7095C5.07209 16.6953 5.71093 17.5329 5.92387 17.8736C6.94601 19.5913 8.5786 19.1087 9.23163 18.8105C9.331 18.0723 9.62913 17.5754 9.95564 17.2915C7.42869 17.0076 4.78816 16.028 4.78816 11.6839C4.78816 10.4489 5.22825 9.42673 5.95227 8.63173C5.8387 8.3478 5.4412 7.1837 6.06584 5.6221C6.06584 5.6221 7.01699 5.32397 9.18904 6.7862C10.0976 6.53066 11.063 6.4029 12.0283 6.4029C12.9937 6.4029 13.959 6.53066 14.8676 6.7862C17.0396 5.30978 17.9908 5.6221 17.9908 5.6221C18.6154 7.1837 18.2179 8.3478 18.1044 8.63173C18.8284 9.42673 19.2685 10.4347 19.2685 11.6839C19.2685 16.0422 16.6137 17.0076 14.0868 17.2915C14.4985 17.6464 14.8534 18.3279 14.8534 19.3926C14.8534 20.9116 14.8392 22.1325 14.8392 22.5158C14.8392 22.8139 15.0521 23.1688 15.62 23.0552C17.8746 22.2941 19.8337 20.845 21.2216 18.9121C22.6095 16.9792 23.3563 14.6598 23.357 12.2802C23.357 6.0054 18.2747 0.923096 11.9999 0.923096Z" fill="white"/>
</svg>
