<svg width="24" height="24" viewBox="0 0 24 24" fill="none" xmlns="http://www.w3.org/2000/svg">
<path opacity="0.65" d="M9.78463 15.3231L15.5336 12L9.78463 8.67692V15.3231ZM22.5896 6.64985C22.7336 7.17046 22.8333 7.86831 22.8997 8.75446C22.9773 9.64062 23.0105 10.4049 23.0105 11.0695L23.0769 12C23.0769 14.4258 22.8997 16.2092 22.5896 17.3502C22.3126 18.3471 21.6702 18.9895 20.6733 19.2665C20.1526 19.4105 19.2 19.5102 17.7379 19.5766C16.2979 19.6542 14.9797 19.6874 13.7613 19.6874L12 19.7538C7.35879 19.7538 4.46771 19.5766 3.32679 19.2665C2.32987 18.9895 1.6874 18.3471 1.41048 17.3502C1.26648 16.8295 1.16679 16.1317 1.10033 15.2455C1.02279 14.3594 0.989557 13.5951 0.989557 12.9305L0.923096 12C0.923096 9.57415 1.10033 7.79077 1.41048 6.64985C1.6874 5.65292 2.32987 5.01046 3.32679 4.73354C3.8474 4.58954 4.80002 4.48985 6.26217 4.42339C7.70217 4.34585 9.02033 4.31262 10.2388 4.31262L12 4.24615C16.6413 4.24615 19.5323 4.42339 20.6733 4.73354C21.6702 5.01046 22.3126 5.65292 22.5896 6.64985Z" fill="white"/>
</svg>
