<svg width="14" height="14" viewBox="0 0 14 14" fill="none" xmlns="http://www.w3.org/2000/svg">
<path d="M7 11.6667C7.27222 11.6667 7.50244 11.5726 7.69067 11.3843C7.87889 11.1961 7.97274 10.9661 7.97222 10.6944C7.97222 10.4222 7.87811 10.192 7.68989 10.0038C7.50167 9.81556 7.2717 9.7217 7 9.72222C6.72778 9.72222 6.49756 9.81633 6.30933 10.0046C6.12111 10.1928 6.02726 10.4227 6.02778 10.6944C6.02778 10.9667 6.12189 11.1969 6.31011 11.3851C6.49833 11.5733 6.7283 11.6672 7 11.6667ZM9.8 4.62778C9.8 3.92778 9.5633 3.37037 9.08989 2.95556C8.61648 2.54074 7.99141 2.33333 7.21467 2.33333C6.63133 2.33333 6.11593 2.45337 5.66844 2.69344C5.22096 2.93352 4.86759 3.28015 4.60833 3.73333C4.51759 3.87593 4.51422 4.03148 4.59822 4.2C4.68222 4.36852 4.81522 4.49167 4.99722 4.56945C5.15278 4.63426 5.31482 4.63763 5.48333 4.57956C5.65185 4.52148 5.79445 4.41441 5.91111 4.25833C6.0537 4.06389 6.23207 3.91482 6.44622 3.81111C6.66037 3.70741 6.89033 3.65556 7.13611 3.65556C7.49907 3.65556 7.79385 3.75278 8.02044 3.94722C8.24704 4.14167 8.36059 4.38796 8.36111 4.68611C8.36111 4.91944 8.28333 5.16574 8.12778 5.425C7.97222 5.68426 7.73889 5.94352 7.42778 6.20278C7.09074 6.50093 6.83796 6.77963 6.66944 7.03889C6.50093 7.29815 6.39074 7.60278 6.33889 7.95278C6.31296 8.13426 6.36793 8.29941 6.50378 8.44822C6.63963 8.59704 6.81152 8.6717 7.01944 8.67222C7.20093 8.67222 7.36633 8.61052 7.51567 8.48711C7.665 8.3637 7.75885 8.19855 7.79722 7.99167C7.83611 7.78426 7.90741 7.59941 8.01111 7.43711C8.11481 7.27482 8.2963 7.0643 8.55556 6.80556C9.04815 6.31296 9.3787 5.91759 9.54722 5.61944C9.71574 5.3213 9.8 4.99074 9.8 4.62778ZM1.55556 14C1.12778 14 0.761445 13.8476 0.456557 13.5427C0.151668 13.2378 -0.000517198 12.8717 1.32051e-06 12.4444V1.55556C1.32051e-06 1.12778 0.152446 0.761445 0.457335 0.456557C0.762223 0.151668 1.1283 -0.000517198 1.55556 1.32051e-06H12.4444C12.8722 1.32051e-06 13.2386 0.152446 13.5434 0.457335C13.8483 0.762223 14.0005 1.1283 14 1.55556V12.4444C14 12.8722 13.8476 13.2386 13.5427 13.5434C13.2378 13.8483 12.8717 14.0005 12.4444 14H1.55556Z" fill="white"/>
</svg>
