<?xml version="1.0" encoding="UTF-8" standalone="no"?>
<svg
   xmlns:dc="http://purl.org/dc/elements/1.1/"
   xmlns:cc="http://creativecommons.org/ns#"
   xmlns:rdf="http://www.w3.org/1999/02/22-rdf-syntax-ns#"
   xmlns:svg="http://www.w3.org/2000/svg"
   xmlns="http://www.w3.org/2000/svg"
   xmlns:sodipodi="http://sodipodi.sourceforge.net/DTD/sodipodi-0.dtd"
   xmlns:inkscape="http://www.inkscape.org/namespaces/inkscape"
   version="1.1"
   id="svg2"
   xml:space="preserve"
   width="1242.3507"
   height="1055.9973"
   viewBox="0 0 1242.3507 1055.9973"
   sodipodi:docname="homebase-logo.ai"><metadata
     id="metadata8"><rdf:RDF><cc:Work
         rdf:about=""><dc:format>image/svg+xml</dc:format><dc:type
           rdf:resource="http://purl.org/dc/dcmitype/StillImage" /></cc:Work></rdf:RDF></metadata><defs
     id="defs6"><clipPath
       clipPathUnits="userSpaceOnUse"
       id="clipPath18"><path
         d="M 0,791.998 H 931.763 V 0 H 0 Z"
         id="path16" /></clipPath></defs><sodipodi:namedview
     pagecolor="#ffffff"
     bordercolor="#666666"
     borderopacity="1"
     objecttolerance="10"
     gridtolerance="10"
     guidetolerance="10"
     inkscape:pageopacity="0"
     inkscape:pageshadow="2"
     inkscape:window-width="640"
     inkscape:window-height="480"
     id="namedview4" /><g
     id="g10"
     inkscape:groupmode="layer"
     inkscape:label="homebase-logo"
     transform="matrix(1.3333333,0,0,-1.3333333,0,1055.9973)"><g
       id="g12"><g
         id="g14"
         clip-path="url(#clipPath18)"><g
           id="g20"
           transform="translate(195.3105,694.3828)"><path
             d="m 0,0 v -0.046 z m -37.37,-32.167 h -0.015 z m 4.546,-3.785 0.057,-18.919 c 0.005,-1.455 -0.242,-2.915 -0.839,-4.242 -1.665,-3.698 -5.254,-5.898 -9.069,-5.898 h -14.8 c -2.088,0 -3.781,-1.693 -3.781,-3.781 v -293.66 h -19.818 v 301.524 c 0,8.69 7.044,15.734 15.734,15.734 h 8.933 c 2.094,0 3.788,1.701 3.782,3.794 l -0.042,13.658 c 0,8.644 6.705,15.393 15.264,15.393 l 25.521,0.047 -0.086,12.556 c -10e-4,8.584 7.212,15.513 16.077,15.513 8.662,0 15.708,-7.047 15.708,-15.708 l 0.074,-12.392 25.272,-0.016 c 8.426,-0.005 15.254,-6.838 15.254,-15.263 v -13.8 c 0,-2.088 1.692,-3.782 3.781,-3.782 h 9.03 c 8.689,0 15.733,-7.044 15.733,-15.733 V -362.452 H 69.143 v 293.66 c 0,2.088 -1.694,3.781 -3.783,3.781 H 50.508 c -5.473,0 -9.909,4.436 -9.909,9.909 v 19.157 c 0,2.089 -1.694,3.782 -3.782,3.782 l -65.86,0.005 c -2.093,0 -3.788,-1.7 -3.781,-3.794"
             style="fill:#81feb7;fill-opacity:1;fill-rule:nonzero;stroke:none"
             id="path22" /></g><g
           id="g24"
           transform="translate(501.7802,331.9311)"><path
             d="m 0,0 h -19.818 v 135.18 c 0,2.095 -0.98,4.071 -2.649,5.34 l -82.644,62.835 c -1.409,1.071 -3.371,1.022 -4.725,-0.118 l -74.471,-62.698 c -1.513,-1.274 -2.386,-3.151 -2.386,-5.131 V 0 h -19.819 v 140 c 0,5.14 2.408,10.041 6.459,13.187 l 82.005,69.043 c 0.158,0.132 0.32,0.261 0.487,0.384 5.926,4.385 14.164,4.335 20.034,-0.13 L -6.589,153.343 C -2.438,150.187 0,145.271 0,140.056 Z"
             style="fill:#81feb7;fill-opacity:1;fill-rule:nonzero;stroke:none"
             id="path26" /></g><g
           id="g28"
           transform="translate(642.5322,331.9311)"><path
             d="m 0,0 h -19.818 v 233.398 c 0,1.607 -1.303,2.909 -2.91,2.909 h -9.233 c -4.932,0 -8.929,3.998 -8.929,8.928 v 15.447 c 0,1.704 -1.381,3.085 -3.085,3.085 h -42.026 c -1.704,0 -3.085,-1.381 -3.085,-3.085 v -15.447 c 0,-4.93 -3.998,-8.928 -8.929,-8.928 h -9.013 c -1.607,0 -2.909,-1.302 -2.909,-2.909 V 0 h -19.818 v 242.379 c 0,7.592 6.154,13.746 13.746,13.746 h 4.969 c 1.18,0 2.136,0.956 2.136,2.136 v 11.833 c 0,7.451 6.04,13.491 13.49,13.491 h 60.851 c 7.451,0 13.492,-6.041 13.492,-13.492 v -11.832 c 0,-1.18 0.956,-2.136 2.134,-2.136 h 5.266 c 7.55,0 13.671,-6.12 13.671,-13.671 z"
             style="fill:#81feb7;fill-opacity:1;fill-rule:nonzero;stroke:none"
             id="path30" /></g><g
           id="g32"
           transform="translate(661.6797,760.4507)"><path
             d="m 0,0 0.015,-0.009 z m 155.848,-428.52 h -19.819 v 320.812 c 0,3.291 -1.538,6.393 -4.158,8.385 l -115.18,87.592 c -2.036,1.549 -4.965,0.096 -4.965,-2.463 l 10e-4,-168.11 c 0,-0.522 -0.041,-1.034 -0.119,-1.535 V -428.52 H -8.21 v 246.216 c 0,0.523 0.041,1.034 0.118,1.535 V -0.265 l -0.045,4.96 c -0.135,7.733 3.824,11.172 6.2,12.534 3.724,2.135 8.402,2.021 12.228,-0.293 1.946,-1.159 6.619,-4.003 6.619,-4.003 0.292,-0.178 0.574,-0.37 0.847,-0.577 L 149.688,-87.975 c 0.118,-0.089 0.234,-0.181 0.347,-0.276 3.694,-3.079 5.813,-7.579 5.813,-12.346 z"
             style="fill:#81feb7;fill-opacity:1;fill-rule:nonzero;stroke:none"
             id="path34" /></g><g
           id="g36"
           transform="translate(608.0713,12.7924)"><path
             d="m 0,0 h -284.38 c -3.343,0 -6.052,2.71 -6.052,6.053 V 45.37 c 0,3.343 2.709,6.052 6.052,6.052 H 0 c 3.343,0 6.053,-2.709 6.053,-6.052 V 6.053 C 6.053,2.71 3.343,0 0,0"
             style="fill:#81feb7;fill-opacity:1;fill-rule:nonzero;stroke:none"
             id="path38" /></g><g
           id="g40"
           transform="translate(747.9043,169.9516)"><path
             d="m 0,0 -40.165,-69.367 c -3.828,-4.413 -8.596,-6.82 -13.512,-6.82 h -458.844 c -5.049,0 -9.938,2.539 -13.812,7.171 L -564.08,0.041 c -1.788,2.138 -0.732,6.304 1.599,6.304 H -1.564 C 0.788,6.345 1.831,2.111 0,0"
             style="fill:#81feb7;fill-opacity:1;fill-rule:nonzero;stroke:none"
             id="path42" /></g><g
           id="g44"
           transform="translate(894.4658,205.8471)"><path
             d="m 0,0 h -857.168 c -5.432,0 -9.834,5.033 -9.834,11.24 l -18.136,81.364 c 0,6.208 4.403,11.24 9.834,11.24 h 893.44 c 5.43,0 9.834,-5.032 9.834,-11.24 L 9.834,11.24 C 9.834,5.033 5.431,0 0,0"
             style="fill:#81feb7;fill-opacity:1;fill-rule:nonzero;stroke:none"
             id="path46" /></g></g></g></g></svg>
