<svg width="26" height="25" viewBox="0 0 26 25" fill="none" xmlns="http://www.w3.org/2000/svg">
<path d="M16.5688 4.91868C16.5688 7.07259 14.8227 8.81868 12.6688 8.81868C10.5149 8.81868 8.7688 7.07259 8.7688 4.91868C8.7688 2.76477 10.5149 1.01868 12.6688 1.01868C14.8227 1.01868 16.5688 2.76477 16.5688 4.91868Z" fill="white" stroke="white"/>
<circle cx="12.6687" cy="21.3187" r="2.7" fill="white" stroke="white"/>
<path d="M12.6689 8.51868V18.5187" stroke="white"/>
<circle cx="3.26885" cy="21.3187" r="2.7" fill="white" stroke="white"/>
<circle r="2.7" transform="matrix(-1 0 0 1 22.0688 21.3187)" fill="white" stroke="white"/>
<path d="M13.0689 13.3187H3.8501C3.57396 13.3187 3.3501 13.5425 3.3501 13.8187V18.5187" stroke="white"/>
<path d="M13.0688 13.3187H21.6001C21.8762 13.3187 22.1001 13.5425 22.1001 13.8187V18.5187" stroke="white"/>
</svg>
