<svg width="24" height="24" viewBox="0 0 24 24" fill="none" xmlns="http://www.w3.org/2000/svg">
<path d="M15.5 4.4C15.5 6.55391 13.7539 8.3 11.6 8.3C9.4461 8.3 7.70001 6.55391 7.70001 4.4C7.70001 2.24609 9.4461 0.5 11.6 0.5C13.7539 0.5 15.5 2.24609 15.5 4.4Z" stroke="current"/>
<circle cx="11.6001" cy="20.8001" r="2.7" stroke="current"/>
<path d="M11.6 8V18" stroke="current"/>
<circle cx="3.2" cy="20.8001" r="2.7" stroke="current"/>
<circle r="2.7" transform="matrix(-1 0 0 1 20 20.8001)" stroke="current"/>
<path d="M12 12.8H3.29999C3.02384 12.8 2.79999 13.0239 2.79999 13.3V18" stroke="current"/>
<path d="M12 12.8H19.9C20.1762 12.8 20.4 13.0239 20.4 13.3V18" stroke="current"/>
</svg>
