<svg width="26" height="25" viewBox="0 0 26 25" fill="none" xmlns="http://www.w3.org/2000/svg">
<path d="M16.5688 4.91868C16.5688 7.07259 14.8227 8.81868 12.6688 8.81868C10.5149 8.81868 8.7688 7.07259 8.7688 4.91868C8.7688 2.76477 10.5149 1.01868 12.6688 1.01868C14.8227 1.01868 16.5688 2.76477 16.5688 4.91868Z" fill="white" stroke="white"/>
<circle cx="12.6687" cy="21.3187" r="2.7" fill="white" stroke="white"/>
<path d="M12.6689 8.51868V18.5187" stroke="white"/>
<circle cx="3.26885" cy="21.3187" r="2.7" fill="white" stroke="white"/>
<circle r="2.7" transform="matrix(-1 0 0 1 22.0688 21.3187)" fill="white" stroke="white"/>
<path d="M13.0689 13.3187H3.8501C3.57396 13.3187 3.3501 13.5425 3.3501 13.8187V18.5187" stroke="white"/>
<path d="M13.0688 13.3187H21.6001C21.8762 13.3187 22.1001 13.5425 22.1001 13.8187V18.5187" stroke="white"/>
</svg>
<svg width="26" height="25" viewBox="0 0 97 100" fill="none" xmlns="http://www.w3.org/2000/svg">
<path d="M96.9231 86.6667C96.9231 94.1667 91.5385 100 84.6154 100C77.6923 100 72.3077 94.1667 72.3077 86.6667C72.3077 80 76.9231 74.5833 82.6923 73.3333V55.4167H50.3846V73.3333C56.1538 74.1667 60.7692 80 60.7692 86.6667C60.7692 94.1667 55.3846 100 48.4615 100C41.5385 100 36.1538 94.1667 36.1538 86.6667C36.1538 80 40.7692 74.5833 46.5385 73.3333V55.4167H14.6154V73.75C20.3846 75 24.6154 80.4167 24.6154 86.6667C24.6154 94.1667 19.2308 100 12.3077 100C5.38462 100 0 94.1667 0 86.6667C0 80 4.61538 74.1667 10.7692 73.3333V55.4167C10.7692 53.3333 12.3077 51.25 14.6154 51.25H46.5385V36.6667C38.0769 35.4167 31.5385 27.9167 31.5385 18.3333C31.5385 8.33333 39.2308 0 48.4615 0C57.6923 0 65.3846 8.33333 65.3846 18.3333C65.3846 27.9167 58.8462 35.4167 50.3846 36.6667V51.25H82.6923C85 51.25 86.5385 53.3333 86.5385 55.4167V73.3333C92.3077 74.5833 96.9231 80 96.9231 86.6667Z" fill="white"/>
</svg>
