<svg width="23" height="23" viewBox="0 0 23 23" fill="none" xmlns="http://www.w3.org/2000/svg">
<path d="M3.28568 8.51855C1.63905 8.51855 0.304199 9.85341 0.304199 11.5C0.304199 13.1467 1.63905 14.4815 3.28568 14.4815C4.93231 14.4815 6.26717 13.1467 6.26717 11.5C6.26717 9.85341 4.93231 8.51855 3.28568 8.51855ZM3.28568 13.2646C2.31117 13.2646 1.52113 12.4745 1.52113 11.5C1.52113 10.5255 2.31117 9.73549 3.28568 9.73549C4.2602 9.73549 5.05023 10.5255 5.05023 11.5C5.05023 12.4745 4.26026 13.2646 3.28568 13.2646Z" fill="white"/>
<path d="M22.0873 10.8916H8.33601C7.99995 10.8916 7.72754 11.164 7.72754 11.5001C7.72754 11.8361 7.99995 12.1085 8.33601 12.1085H22.0873C22.4234 12.1085 22.6958 11.8361 22.6958 11.5001C22.6958 11.164 22.4234 10.8916 22.0873 10.8916Z" fill="white"/>
<path d="M3.28568 0C1.63905 0 0.304199 1.33485 0.304199 2.98148C0.304199 4.62811 1.63905 5.96297 3.28568 5.96297C4.93231 5.96297 6.26717 4.62811 6.26717 2.98148C6.26717 1.33485 4.93231 0 3.28568 0ZM3.28568 4.74603C2.31117 4.74603 1.52113 3.956 1.52113 2.98148C1.52113 2.00697 2.31117 1.21693 3.28568 1.21693C4.2602 1.21693 5.05023 2.00697 5.05023 2.98148C5.05023 3.956 4.26026 4.74603 3.28568 4.74603Z" fill="white"/>
<path d="M8.33601 3.58998H22.0873C22.4234 3.58998 22.6958 3.31757 22.6958 2.98151C22.6958 2.64546 22.4234 2.37305 22.0873 2.37305H8.33601C7.99995 2.37305 7.72754 2.64546 7.72754 2.98151C7.72754 3.31757 7.99995 3.58998 8.33601 3.58998Z" fill="white"/>
<path d="M3.28568 17.037C1.63905 17.037 0.304199 18.3718 0.304199 20.0185C0.304199 21.6651 1.63905 22.9999 3.28568 22.9999C4.93231 22.9999 6.26717 21.6651 6.26717 20.0185C6.26717 18.3718 4.93231 17.037 3.28568 17.037ZM5.05023 20.0185C5.05023 20.993 4.2602 21.783 3.28568 21.783C2.31117 21.783 1.52113 20.993 1.52113 20.0185C1.52113 19.044 2.31117 18.2539 3.28568 18.2539C4.2602 18.2539 5.05023 19.044 5.05023 20.0185Z" fill="white"/>
<path d="M22.0873 19.41H8.33601C7.99995 19.41 7.72754 19.6824 7.72754 20.0185C7.72754 20.3546 7.99995 20.627 8.33601 20.627H22.0873C22.4234 20.627 22.6958 20.3546 22.6958 20.0185C22.6958 19.6824 22.4234 19.41 22.0873 19.41Z" fill="white"/>
</svg>
