<svg width="29" height="24" viewBox="0 0 29 24" fill="none" xmlns="http://www.w3.org/2000/svg">
<path d="M3.3 6.6C5.12254 6.6 6.6 5.12254 6.6 3.3C6.6 1.47746 5.12254 0 3.3 0C1.47746 0 0 1.47746 0 3.3C0 5.12254 1.47746 6.6 3.3 6.6Z" fill="white"/>
<path d="M3.3 15.3001C5.12254 15.3001 6.6 13.8226 6.6 12.0001C6.6 10.1775 5.12254 8.70007 3.3 8.70007C1.47746 8.70007 0 10.1775 0 12.0001C0 13.8226 1.47746 15.3001 3.3 15.3001Z" fill="white"/>
<path d="M3.3 24C5.12254 24 6.6 22.5226 6.6 20.7C6.6 18.8775 5.12254 17.4 3.3 17.4C1.47746 17.4 0 18.8775 0 20.7C0 22.5226 1.47746 24 3.3 24Z" fill="white"/>
<path d="M27.9001 4.00002H10.7001C10.3001 4.00002 9.90015 3.70002 9.90015 3.20002C9.90015 2.70002 10.2001 2.40002 10.7001 2.40002H27.9001C28.3001 2.40002 28.7001 2.70002 28.7001 3.20002C28.7001 3.70002 28.3001 4.00002 27.9001 4.00002Z" fill="white"/>
<path d="M27.9001 12.8001H10.7001C10.3001 12.8001 9.90015 12.5001 9.90015 12.0001C9.90015 11.5001 10.2001 11.2001 10.7001 11.2001H27.9001C28.3001 11.2001 28.7001 11.5001 28.7001 12.0001C28.7001 12.5001 28.3001 12.8001 27.9001 12.8001Z" fill="white"/>
<path d="M27.9001 21.5H10.7001C10.3001 21.5 9.90015 21.2 9.90015 20.7C9.90015 20.2 10.2001 19.9 10.7001 19.9H27.9001C28.3001 19.9 28.7001 20.2 28.7001 20.7C28.7001 21.2 28.3001 21.5 27.9001 21.5Z" fill="white"/>
</svg>
