<svg width="31" height="25" viewBox="0 0 31 25" fill="none" xmlns="http://www.w3.org/2000/svg">
<path d="M13.3981 0.706421C5.4198 0.706421 0.632935 7.10638 0.632935 10.3067C0.632935 13.507 2.22835 15.907 5.4198 15.907C8.61125 15.907 10.2073 16.7066 10.2073 19.1067C10.2073 22.3064 12.6004 24.7064 15.7919 24.7064C26.1639 24.7064 30.9502 19.1067 30.9502 13.507C30.9495 3.90672 22.9699 0.706421 13.3981 0.706421ZM11.4035 3.90672C11.6658 3.90705 11.9254 3.95903 12.1676 4.0597C12.4098 4.16037 12.6297 4.30776 12.815 4.49344C13.0002 4.67912 13.147 4.89947 13.2471 5.1419C13.3471 5.38432 13.3984 5.64408 13.3981 5.90635C13.3981 7.01164 12.505 7.90661 11.4035 7.90661C10.302 7.90661 9.40895 7.01101 9.40895 5.90635C9.40862 5.64408 9.45995 5.38432 9.56001 5.1419C9.66007 4.89947 9.80689 4.67912 9.99211 4.49344C10.1773 4.30776 10.3973 4.16037 10.6395 4.0597C10.8816 3.95903 11.1413 3.90705 11.4035 3.90672ZM17.7852 3.90672C18.0474 3.90705 18.3071 3.95903 18.5492 4.0597C18.7914 4.16037 19.0114 4.30776 19.1966 4.49344C19.3818 4.67912 19.5286 4.89947 19.6287 5.1419C19.7288 5.38432 19.7801 5.64408 19.7798 5.90635C19.7802 6.16866 19.7289 6.42849 19.6289 6.67099C19.5289 6.91349 19.382 7.13391 19.1968 7.31966C19.0116 7.50541 18.7916 7.65285 18.5494 7.75356C18.3072 7.85427 18.0475 7.90628 17.7852 7.90661C17.5229 7.9062 17.2633 7.85413 17.0212 7.75338C16.779 7.65263 16.5591 7.50518 16.3739 7.31944C16.1888 7.1337 16.042 6.91331 15.942 6.67085C15.8421 6.42839 15.7908 6.16861 15.7912 5.90635C15.7906 5.37679 16.0002 4.86865 16.3742 4.49366C16.7481 4.11868 17.2556 3.90755 17.7852 3.90672ZM24.1681 7.10638C24.4304 7.10663 24.6902 7.15857 24.9325 7.25925C25.1748 7.35992 25.3948 7.50735 25.5801 7.6931C25.7654 7.87886 25.9123 8.09931 26.0124 8.34185C26.1124 8.58439 26.1637 8.84427 26.1633 9.10664C26.1637 9.36898 26.1124 9.62883 26.0123 9.87134C25.9123 10.1138 25.7654 10.3342 25.5801 10.52C25.3948 10.7057 25.1747 10.853 24.9324 10.9536C24.6902 11.0542 24.4304 11.1061 24.1681 11.1063C23.9058 11.106 23.6462 11.0541 23.404 10.9534C23.1618 10.8528 22.9419 10.7054 22.7567 10.5197C22.5715 10.334 22.4247 10.1136 22.3248 9.87114C22.2248 9.62868 22.1736 9.3689 22.1741 9.10664C22.1736 8.84435 22.2248 8.58454 22.3248 8.34204C22.4247 8.09955 22.5715 7.87912 22.7567 7.69336C22.9418 7.50761 23.1618 7.36016 23.404 7.25944C23.6461 7.15872 23.9058 7.10671 24.1681 7.10638ZM5.81897 8.70684C6.08117 8.70709 6.34076 8.759 6.58289 8.85961C6.82502 8.96022 7.04496 9.10756 7.23013 9.2932C7.4153 9.47884 7.56208 9.69915 7.66208 9.94153C7.76207 10.1839 7.81333 10.4436 7.81291 10.7058C7.81291 11.8111 6.91984 12.7061 5.81897 12.7061C4.71809 12.7061 3.82439 11.8105 3.82439 10.7058C3.82388 10.1763 4.03372 9.66821 4.40776 9.29334C4.7818 8.91848 5.28941 8.70751 5.81897 8.70684ZM15.7912 16.7066C17.1132 16.7066 18.1843 17.7803 18.1843 19.1073C18.1843 20.4324 17.1132 21.5068 15.7912 21.5068C14.4693 21.5068 13.3981 20.4324 13.3981 19.1073C13.3975 18.7925 13.459 18.4807 13.5789 18.1897C13.6989 17.8986 13.875 17.6341 14.0973 17.4112C14.3195 17.1882 14.5835 17.0113 14.8742 16.8904C15.1648 16.7695 15.4764 16.707 15.7912 16.7066Z" fill="#ffffff"/>
</svg>
