<svg width="17" height="16" viewBox="0 0 17 16" fill="none" xmlns="http://www.w3.org/2000/svg">
<path d="M2.02734 14.9999V1C2.05115 1 2.08401 1.00286 2.12591 1.00857C2.16782 1.01429 2.2183 1.04714 2.27734 1.10714L2.84877 1.67857C2.9202 1.75 3.00353 1.78571 3.09877 1.78571C3.19401 1.78571 3.27734 1.75 3.34877 1.67857L3.92019 1.10714C3.99162 1.03571 4.07496 1 4.17019 1C4.26543 1 4.34876 1.03571 4.42019 1.10714L4.99162 1.67857C5.06305 1.75 5.14638 1.78571 5.24162 1.78571C5.33686 1.78571 5.42019 1.75 5.49162 1.67857L6.06304 1.10714C6.13447 1.03571 6.21781 1 6.31304 1C6.40828 1 6.49161 1.03571 6.56304 1.10714L7.13447 1.67857C7.2059 1.75 7.28923 1.78571 7.38447 1.78571C7.47971 1.78571 7.56304 1.75 7.63447 1.67857L8.20589 1.10714C8.27732 1.03571 8.36065 1 8.45589 1C8.55113 1 8.63446 1.03571 8.70589 1.10714L9.27732 1.67857C9.34875 1.75 9.43208 1.78571 9.52732 1.78571C9.62256 1.78571 9.70589 1.75 9.77732 1.67857L10.3487 1.10714C10.4202 1.03571 10.5035 1 10.5987 1C10.694 1 10.7773 1.03571 10.8487 1.10714L11.4202 1.67857C11.4916 1.75 11.5749 1.78571 11.6702 1.78571C11.7654 1.78571 11.8487 1.75 11.9202 1.67857L12.4916 1.10714C12.563 1.03571 12.6464 1 12.7416 1C12.8368 1 12.9202 1.03571 12.9916 1.10714L13.563 1.67857C13.6344 1.75 13.7178 1.78571 13.813 1.78571C13.9083 1.78571 13.9916 1.75 14.063 1.67857L14.6344 1.10714C14.694 1.04762 14.7447 1.015 14.7866 1.00929C14.8285 1.00357 14.8611 1.00048 14.8844 1V14.9999C14.8606 14.9999 14.828 14.9969 14.7866 14.9907C14.7452 14.9845 14.6944 14.9519 14.6344 14.8928L14.063 14.3214C13.9916 14.25 13.9083 14.2142 13.813 14.2142C13.7178 14.2142 13.6344 14.25 13.563 14.3214L12.9916 14.8928C12.9202 14.9642 12.8368 14.9999 12.7416 14.9999C12.6464 14.9999 12.563 14.9642 12.4916 14.8928L11.9202 14.3214C11.8487 14.25 11.7654 14.2142 11.6702 14.2142C11.5749 14.2142 11.4916 14.25 11.4202 14.3214L10.8487 14.8928C10.7773 14.9642 10.694 14.9999 10.5987 14.9999C10.5035 14.9999 10.4202 14.9642 10.3487 14.8928L9.77732 14.3214C9.70589 14.25 9.62256 14.2142 9.52732 14.2142C9.43208 14.2142 9.34875 14.25 9.27732 14.3214L8.70589 14.8928C8.63446 14.9642 8.55113 14.9999 8.45589 14.9999C8.36065 14.9999 8.27732 14.9642 8.20589 14.8928L7.63447 14.3214C7.56304 14.25 7.47971 14.2142 7.38447 14.2142C7.28923 14.2142 7.2059 14.25 7.13447 14.3214L6.56304 14.8928C6.49161 14.9642 6.40828 14.9999 6.31304 14.9999C6.21781 14.9999 6.13447 14.9642 6.06304 14.8928L5.49162 14.3214C5.42019 14.25 5.33686 14.2142 5.24162 14.2142C5.14638 14.2142 5.06305 14.25 4.99162 14.3214L4.42019 14.8928C4.34876 14.9642 4.26543 14.9999 4.17019 14.9999C4.07496 14.9999 3.99162 14.9642 3.92019 14.8928L3.34877 14.3214C3.27734 14.25 3.19401 14.2142 3.09877 14.2142C3.00353 14.2142 2.9202 14.25 2.84877 14.3214L2.27734 14.8928C2.21782 14.9523 2.16711 14.9852 2.1252 14.9914C2.0833 14.9976 2.05068 15.0004 2.02734 14.9999ZM4.88448 11.5714H12.0273C12.2297 11.5714 12.3995 11.5028 12.5366 11.3657C12.6737 11.2285 12.7421 11.059 12.7416 10.8571C12.7416 10.6547 12.673 10.485 12.5359 10.3478C12.3987 10.2107 12.2292 10.1423 12.0273 10.1428H4.88448C4.6821 10.1428 4.51234 10.2114 4.37519 10.3485C4.23805 10.4857 4.16972 10.6552 4.17019 10.8571C4.17019 11.0595 4.23876 11.2292 4.37591 11.3664C4.51305 11.5035 4.68257 11.5719 4.88448 11.5714ZM4.88448 8.71426H12.0273C12.2297 8.71426 12.3995 8.64569 12.5366 8.50854C12.6737 8.3714 12.7421 8.20188 12.7416 7.99997C12.7416 7.79759 12.673 7.62783 12.5359 7.49069C12.3987 7.35355 12.2292 7.28522 12.0273 7.28569H4.88448C4.6821 7.28569 4.51234 7.35426 4.37519 7.49141C4.23805 7.62855 4.16972 7.79807 4.17019 7.99997C4.17019 8.20235 4.23876 8.37212 4.37591 8.50926C4.51305 8.6464 4.68257 8.71473 4.88448 8.71426ZM4.88448 5.85713H12.0273C12.2297 5.85713 12.3995 5.78855 12.5366 5.65141C12.6737 5.51427 12.7421 5.34475 12.7416 5.14284C12.7416 4.94046 12.673 4.7707 12.5359 4.63356C12.3987 4.49642 12.2292 4.42808 12.0273 4.42856H4.88448C4.6821 4.42856 4.51234 4.49713 4.37519 4.63427C4.23805 4.77141 4.16972 4.94094 4.17019 5.14284C4.17019 5.34522 4.23876 5.51498 4.37591 5.65213C4.51305 5.78927 4.68257 5.8576 4.88448 5.85713Z" fill="#81FEB7"/>
</svg>
