<svg width="25" height="25" viewBox="0 0 25 25" fill="none" xmlns="http://www.w3.org/2000/svg">
<path d="M23.7815 10.7891C24.6926 10.7891 25.0729 9.61852 24.3328 9.07893L13.0722 0.887758C12.9114 0.769939 12.7172 0.706421 12.5179 0.706421C12.3185 0.706421 12.1243 0.769939 11.9635 0.887758L0.702883 9.07893C-0.0372111 9.61557 0.343156 10.7891 1.25722 10.7891H3.08239V21.8168H0.95941C0.829672 21.8168 0.723523 21.923 0.723523 22.0527V24.4705C0.723523 24.6003 0.829672 24.7064 0.95941 24.7064H24.0763C24.206 24.7064 24.3122 24.6003 24.3122 24.4705V22.0527C24.3122 21.923 24.206 21.8168 24.0763 21.8168H21.9533V10.7891H23.7815ZM8.65522 21.8168H5.20537V10.7891H8.65522V21.8168ZM14.228 21.8168H10.7782V10.7891H14.228V21.8168ZM19.8303 21.8168H16.351V10.7891H19.8303V21.8168Z" fill="#ffffff"/>
</svg>
