<svg width="82" height="52" viewBox="0 0 82 52" fill="none" xmlns="http://www.w3.org/2000/svg">
<mask id="mask0" mask-type="alpha" maskUnits="userSpaceOnUse" x="0" y="0" width="82" height="52">
<path d="M28.713 31.2487C20.0338 31.2487 11.3547 31.2487 2.67553 31.2487C0.130513 31.2487 0 31.1834 0 28.5741C0 26.6172 0 24.6602 0 22.7032C0 21.2029 0.391541 20.942 1.82719 20.8115C2.4145 20.8115 3.00181 20.8115 3.58912 20.8115C20.3601 20.8115 37.1964 20.8115 53.9673 20.8115C54.5547 20.8115 55.2072 20.8767 55.7293 20.7463C56.1208 20.681 56.7081 20.3549 56.7734 20.0287C56.8386 19.7025 56.5124 19.1807 56.3166 18.7893C56.2513 18.6588 56.0556 18.5936 55.925 18.5284C51.6181 15.7234 47.3764 12.8532 43.0695 10.0482C41.5033 9.00445 41.3728 8.74352 42.4822 7.11271C43.7873 5.35144 44.9619 3.52494 46.2018 1.76366C46.9849 0.654715 47.3112 0.52425 48.4858 1.30704C52.9232 4.24249 57.3607 7.17794 61.7982 10.0482C63.3643 11.0919 64.8652 12.0704 66.4314 13.0488C70.7383 15.8538 75.0453 18.6588 79.287 21.529C82.4846 23.6817 83.2024 27.5304 79.548 30.4659C78.2429 31.5096 76.742 32.3576 75.3716 33.2709C66.4966 39.1418 57.5565 45.0127 48.6815 50.8836C47.4417 51.7316 47.1806 51.6664 46.3323 50.4922C45.0272 48.6004 43.722 46.6435 42.4822 44.6865C41.7643 43.5776 41.8296 43.1862 43.0042 42.4686C46.7891 39.9245 50.574 37.4457 54.3589 34.9017C55.142 34.3798 55.925 33.9232 56.5776 33.3361C56.9039 33.0752 57.1649 32.4881 57.0997 32.0967C57.0344 31.4444 56.3818 31.3791 55.7945 31.3791C55.3377 31.3791 54.8157 31.3791 54.3589 31.3791C45.745 31.2487 37.2616 31.2487 28.713 31.2487Z" fill="#A6A6A6"/>
</mask>
<g mask="url(#mask0)">
<rect x="-3.2157" y="-7.23035" width="97.2745" height="65.1176" fill="#484848"/>
<rect x="-3.2157" y="-7.23035" width="58.6863" height="65.1176" fill="#4BCF93"/>
</g>
</svg>
