<svg width="16" height="16" viewBox="0 0 16 16" fill="none" xmlns="http://www.w3.org/2000/svg">
<path d="M2.93959 15C2.5437 15 2.20468 14.8589 1.92252 14.5768C1.64036 14.2946 1.49952 13.9558 1.5 13.5604V10.2853L3.47944 8.03599L4.50514 9.0617L3.06555 10.6812H12.8907L11.4871 9.09768L12.5129 8.07198L14.4563 10.2853V13.5604C14.4563 13.9563 14.3152 14.2953 14.0331 14.5775C13.7509 14.8596 13.4121 15.0005 13.0167 15H2.93959ZM6.97044 9.52956L4.46915 6.99229C4.19323 6.71637 4.05527 6.37446 4.05527 5.96658C4.05527 5.5587 4.19323 5.21679 4.46915 4.94087L7.99614 1.41388C8.27206 1.13796 8.61397 1 9.02185 1C9.42973 1 9.77164 1.13796 10.0476 1.41388L12.5848 3.91517C12.8608 4.19109 13.0018 4.52987 13.0081 4.93152C13.0143 5.33316 12.8792 5.67218 12.6028 5.94859L9.00386 9.54756C8.72793 9.82348 8.38891 9.95856 7.98679 9.9528C7.58466 9.94704 7.24588 9.80596 6.97044 9.52956ZM11.5771 4.92288L9.02185 2.4036L5.45887 5.96658L8.01414 8.48586L11.5771 4.92288Z" fill="#FDFDFD"/>
</svg>
