<svg viewBox="0 0 58 68" fill="none" xmlns="http://www.w3.org/2000/svg">
<path d="M2.41071 67.5C1.77135 67.5 1.15818 67.246 0.706082 66.7939C0.253986 66.3418 0 65.7287 0 65.0893C0 64.4499 0.253986 63.8368 0.706082 63.3847C1.15818 62.9326 1.77135 62.6786 2.41071 62.6786H7.23214V57.8571C7.23115 53.7636 8.38825 49.7533 10.5698 46.2895C12.7513 42.8256 15.8682 40.0496 19.5605 38.2821C20.9588 37.612 21.6964 36.4645 21.6964 35.4375V32.0625C21.6964 31.0355 20.9539 29.888 19.5605 29.2179C15.8682 27.4504 12.7513 24.6744 10.5698 21.2105C8.38825 17.7467 7.23115 13.7364 7.23214 9.64286V4.82143H2.41071C1.77135 4.82143 1.15818 4.56744 0.706082 4.11535C0.253986 3.66325 0 3.05008 0 2.41071C0 1.77135 0.253986 1.15818 0.706082 0.706082C1.15818 0.253985 1.77135 0 2.41071 0H55.4464C56.0858 0 56.699 0.253985 57.1511 0.706082C57.6032 1.15818 57.8571 1.77135 57.8571 2.41071C57.8571 3.05008 57.6032 3.66325 57.1511 4.11535C56.699 4.56744 56.0858 4.82143 55.4464 4.82143H50.625V9.64286C50.626 13.7364 49.4689 17.7467 47.2874 21.2105C45.1058 24.6744 41.9889 27.4504 38.2966 29.2179C36.8984 29.888 36.1607 31.0355 36.1607 32.0625V35.4375C36.1607 36.4645 36.9032 37.612 38.2966 38.2821C41.9889 40.0496 45.1058 42.8256 47.2874 46.2895C49.4689 49.7533 50.626 53.7636 50.625 57.8571V62.6786H55.4464C56.0858 62.6786 56.699 62.9326 57.1511 63.3847C57.6032 63.8368 57.8571 64.4499 57.8571 65.0893C57.8571 65.7287 57.6032 66.3418 57.1511 66.7939C56.699 67.246 56.0858 67.5 55.4464 67.5H2.41071ZM12.0536 4.82143V9.64286C12.0536 12.232 12.6321 14.6813 13.6784 16.875H44.1788C45.2202 14.6813 45.8036 12.232 45.8036 9.64286V4.82143H12.0536ZM26.5179 35.4375C26.5179 38.8173 24.2132 41.3968 21.6434 42.6311C18.7712 44.0057 16.3466 46.1649 14.6497 48.8592C12.9527 51.5535 12.0527 54.673 12.0536 57.8571C12.0536 57.8571 16.2289 51.5941 26.5179 50.7214V35.4375ZM31.3393 35.4375V50.7214C41.6282 51.5941 45.8036 57.8571 45.8036 57.8571C45.8045 54.673 44.9044 51.5535 43.2075 48.8592C41.5105 46.1649 39.0859 44.0057 36.2137 42.6311C33.6439 41.3968 31.3393 38.8221 31.3393 35.4423V35.4375Z" fill="#81feb7"/>
<mask id="mask0" mask-type="alpha" maskUnits="userSpaceOnUse" x="0" y="0">
<path d="M2.41071 67.5C1.77135 67.5 1.15818 67.246 0.706082 66.7939C0.253986 66.3418 0 65.7287 0 65.0893C0 64.4499 0.253986 63.8368 0.706082 63.3847C1.15818 62.9326 1.77135 62.6786 2.41071 62.6786H7.23214V57.8571C7.23115 53.7636 8.38825 49.7533 10.5698 46.2895C12.7513 42.8256 15.8682 40.0496 19.5605 38.2821C20.9588 37.612 21.6964 36.4645 21.6964 35.4375V32.0625C21.6964 31.0355 20.9539 29.888 19.5605 29.2179C15.8682 27.4504 12.7513 24.6744 10.5698 21.2105C8.38825 17.7467 7.23115 13.7364 7.23214 9.64286V4.82143H2.41071C1.77135 4.82143 1.15818 4.56744 0.706082 4.11535C0.253986 3.66325 0 3.05008 0 2.41071C0 1.77135 0.253986 1.15818 0.706082 0.706082C1.15818 0.253985 1.77135 0 2.41071 0H55.4464C56.0858 0 56.699 0.253985 57.1511 0.706082C57.6032 1.15818 57.8571 1.77135 57.8571 2.41071C57.8571 3.05008 57.6032 3.66325 57.1511 4.11535C56.699 4.56744 56.0858 4.82143 55.4464 4.82143H50.625V9.64286C50.626 13.7364 49.4689 17.7467 47.2874 21.2105C45.1058 24.6744 41.9889 27.4504 38.2966 29.2179C36.8984 29.888 36.1607 31.0355 36.1607 32.0625V35.4375C36.1607 36.4645 36.9032 37.612 38.2966 38.2821C41.9889 40.0496 45.1058 42.8256 47.2874 46.2895C49.4689 49.7533 50.626 53.7636 50.625 57.8571V62.6786H55.4464C56.0858 62.6786 56.699 62.9326 57.1511 63.3847C57.6032 63.8368 57.8571 64.4499 57.8571 65.0893C57.8571 65.7287 57.6032 66.3418 57.1511 66.7939C56.699 67.246 56.0858 67.5 55.4464 67.5H2.41071ZM12.0536 4.82143V9.64286C12.0536 12.232 12.6321 14.6813 13.6784 16.875H44.1788C45.2202 14.6813 45.8036 12.232 45.8036 9.64286V4.82143H12.0536ZM26.5179 35.4375C26.5179 38.8173 24.2132 41.3968 21.6434 42.6311C18.7712 44.0057 16.3466 46.1649 14.6497 48.8592C12.9527 51.5535 12.0527 54.673 12.0536 57.8571C12.0536 57.8571 16.2289 51.5941 26.5179 50.7214V35.4375ZM31.3393 35.4375V50.7214C41.6282 51.5941 45.8036 57.8571 45.8036 57.8571C45.8045 54.673 44.9044 51.5535 43.2075 48.8592C41.5105 46.1649 39.0859 44.0057 36.2137 42.6311C33.6439 41.3968 31.3393 38.8221 31.3393 35.4423V35.4375Z" fill="black"/>
</mask>
<g mask="url(#mask0)">
<path d="M24.2627 26.7512C19.2858 25.1959 14.9309 20.2189 13.6867 16.7972H44.1706C43.2374 20.53 38.5715 25.4112 34.2166 26.7512C32.8687 27.1659 30.795 30.4839 31.4171 36.7051V50.3917C35.2535 51.0138 43.5484 53.0668 45.788 57.5461V62.8341H12.0567V57.5461C13.4046 55.4724 17.9793 51.3871 26.4401 50.3917V36.7051C27.0623 30.4839 25.6298 27.1784 24.2627 26.7512Z" fill="#3866F9"/>
</g>
</svg>
