<svg width="20" height="27" viewBox="0 0 20 27" fill="none" xmlns="http://www.w3.org/2000/svg">
<path d="M6.91668 27.0124C6.62918 27.0124 6.39585 26.7604 6.39585 26.4499V25.4711C6.39585 25.1235 6.29793 24.7894 6.11356 24.5036L5.0646 22.887C4.45314 21.942 3.93543 20.9486 3.52606 19.9361C3.01043 18.6615 1.89793 16.254 0.227101 14.4484C0.16981 14.3865 0.127101 14.3111 0.10106 14.229C0.0781429 14.1559 -0.108315 13.4932 0.323976 12.8452C0.786476 12.1534 1.75418 11.8012 3.19898 11.8012C4.54898 11.8012 5.61564 12.7417 6.32398 13.6339V3.36261C6.32398 2.12173 7.25835 1.11261 8.40731 1.11261C8.83648 1.11261 9.23439 1.25323 9.56564 1.49398C9.85106 0.61761 10.625 -0.0123901 11.5323 -0.0123901C12.4396 -0.0123901 13.2136 0.61761 13.499 1.49398C13.8302 1.25323 14.2292 1.11261 14.6573 1.11261C15.8063 1.11261 16.7406 2.12173 16.7406 3.36261V5.91524C17.0469 5.72286 17.4031 5.61261 17.7823 5.61261C18.9823 5.61261 19.9167 6.62173 19.9167 7.86261V15.7376L19.8219 17.9224C19.7167 20.3254 18.8677 22.6586 17.4302 24.4935C17.2011 24.786 17.074 25.1595 17.074 25.5431V26.4487C17.074 26.7592 16.8406 27.0112 16.5531 27.0112C16.2656 27.0112 16.0323 26.7592 16.0323 26.4487V25.5431C16.0323 24.894 16.2469 24.2629 16.6344 23.7667C17.925 22.1209 18.6875 20.0272 18.7813 17.8706L18.875 15.7117V7.86261C18.875 7.24161 18.4073 6.73761 17.8333 6.73761C17.2083 6.73761 16.7406 7.24161 16.7406 7.86261V14.6126C16.7406 14.9231 16.5073 15.1751 16.2198 15.1751C15.9323 15.1751 15.699 14.9231 15.699 14.6126V3.36261C15.699 2.74161 15.2313 2.23761 14.6573 2.23761C14.0833 2.23761 13.6156 2.74161 13.6156 3.36261V14.6126C13.6156 14.9231 13.3823 15.1751 13.0948 15.1751C12.8073 15.1751 12.574 14.9231 12.574 14.6126V2.23761C12.574 1.61661 12.1063 1.11261 11.5323 1.11261C10.9583 1.11261 10.4906 1.61661 10.4906 2.23761V14.6126C10.4906 14.9231 10.2573 15.1751 9.96981 15.1751C9.68231 15.1751 9.44897 14.9231 9.44897 14.6126V3.36261C9.44897 2.74161 8.98127 2.23761 8.40731 2.23761C7.83335 2.23761 7.36564 2.74161 7.36564 3.36261V15.4564C7.36564 15.7162 7.19898 15.9435 6.9646 16.0031C6.73023 16.0627 6.48752 15.9401 6.37918 15.7061C6.36564 15.6791 5.06877 12.924 3.19898 12.924C1.73648 12.924 1.29793 13.3189 1.17814 13.4876C1.10106 13.5956 1.08335 13.7047 1.08231 13.7824C2.71981 15.6004 3.83127 17.8774 4.48023 19.4839C4.86252 20.43 5.34585 21.357 5.91773 22.2401L6.96668 23.8567C7.27398 24.3326 7.43752 24.8906 7.43752 25.47V26.4487C7.43752 26.7604 7.20418 27.0124 6.91668 27.0124Z" fill="white"/>
</svg>
