<svg width="28" height="28" viewBox="0 0 28 28" fill="none" xmlns="http://www.w3.org/2000/svg">
<path fill-rule="evenodd" clip-rule="evenodd" d="M28 14C28 17.713 26.525 21.274 23.8995 23.8995C21.274 26.525 17.713 28 14 28C10.287 28 6.72601 26.525 4.10051 23.8995C1.475 21.274 0 17.713 0 14C0 10.287 1.475 6.72601 4.10051 4.10051C6.72601 1.475 10.287 0 14 0C17.713 0 21.274 1.475 23.8995 4.10051C26.525 6.72601 28 10.287 28 14ZM15.75 21C15.75 21.4641 15.5656 21.9092 15.2374 22.2374C14.9092 22.5656 14.4641 22.75 14 22.75C13.5359 22.75 13.0908 22.5656 12.7626 22.2374C12.4344 21.9092 12.25 21.4641 12.25 21C12.25 20.5359 12.4344 20.0908 12.7626 19.7626C13.0908 19.4344 13.5359 19.25 14 19.25C14.4641 19.25 14.9092 19.4344 15.2374 19.7626C15.5656 20.0908 15.75 20.5359 15.75 21ZM14 5.25C13.5359 5.25 13.0908 5.43437 12.7626 5.76256C12.4344 6.09075 12.25 6.53587 12.25 7V14C12.25 14.4641 12.4344 14.9092 12.7626 15.2374C13.0908 15.5656 13.5359 15.75 14 15.75C14.4641 15.75 14.9092 15.5656 15.2374 15.2374C15.5656 14.9092 15.75 14.4641 15.75 14V7C15.75 6.53587 15.5656 6.09075 15.2374 5.76256C14.9092 5.43437 14.4641 5.25 14 5.25Z" fill="inherit"/>
</svg>
