<svg width="40" height="40" viewBox="0 0 40 40" fill="none" xmlns="http://www.w3.org/2000/svg">
<path fill-rule="evenodd" clip-rule="evenodd" d="M25.1998 8.34091L21.1574 4.40106C20.8375 4.08433 20.419 3.92532 20.0001 3.92529C19.7728 3.92529 19.5563 3.97137 19.3594 4.05468C19.1718 4.13388 18.996 4.24939 18.8428 4.40106L14.8004 8.34091C14.1497 8.9751 14.1363 10.0167 14.7705 10.6674C15.4047 11.3182 16.4463 11.3315 17.097 10.6973L18.3548 9.47147V22.4266C18.3548 23.3352 19.0914 24.0718 20.0001 24.0718C20.9087 24.0718 21.6453 23.3352 21.6453 22.4266V9.47141L22.9032 10.6973C23.5539 11.3315 24.5955 11.3182 25.2297 10.6674C25.8639 10.0167 25.8505 8.9751 25.1998 8.34091ZM26.974 14.5653C26.1008 14.3141 25.1893 14.8184 24.9381 15.6916C24.687 16.5649 25.1913 17.4764 26.0645 17.7275C28.2198 18.3474 29.9373 19.2562 31.0836 20.2806C32.226 21.3014 32.7095 22.344 32.7095 23.3051V23.4266C32.7095 23.6318 32.6657 23.8939 32.5801 24.1651L32.5744 24.1839C32.1875 25.4622 30.8971 26.8488 28.6022 27.9445C26.3509 29.0193 23.3496 29.6991 20 29.6991C16.6522 29.6991 13.6511 29.0148 11.399 27.9373C9.10409 26.8394 7.8133 25.4531 7.42582 24.1846C7.35032 23.932 7.30717 23.6665 7.29049 23.3813V23.3032C7.29049 22.3406 7.77549 21.2946 8.91763 20.2718C10.0631 19.246 11.7784 18.3384 13.929 17.7294C14.8033 17.4818 15.3113 16.5724 15.0637 15.6981C14.8161 14.8239 13.9067 14.3158 13.0324 14.5634C10.5352 15.2706 8.33282 16.3784 6.72248 17.8205C5.10883 19.2656 4 21.1418 4 23.3051V23.4266V26.5734C4 29.6537 6.27694 32.0552 9.1077 33.5903C12.0024 35.1602 15.8708 36.0747 20 36.0747C24.1292 36.0747 27.9976 35.1602 30.8923 33.5903C33.7231 32.0552 36 29.6537 36 26.5734V23.4269V23.4247V23.3032C36 21.1384 34.8897 19.269 33.2763 17.8271C31.6668 16.3888 29.4665 15.2821 26.974 14.5653ZM5.62573 23.4269V26.5734C5.69063 28.1021 6.51399 29.5246 7.89282 30.7274V27.6354C6.87441 26.7469 6.15978 25.7398 5.83139 24.6608C5.70799 24.2495 5.6463 23.8382 5.62573 23.4269ZM15.0178 33.9361C13.4242 33.6073 11.9634 33.1246 10.6929 32.52V29.4293C11.9635 30.0348 13.4244 30.519 15.0178 30.849V33.9361ZM17.8179 34.3389C18.5232 34.3985 19.2454 34.4295 19.9805 34.4295C20.7155 34.4295 21.4376 34.3985 22.1428 34.3389V31.2541C21.4375 31.3137 20.7154 31.3446 19.9805 31.3446C19.2455 31.3446 18.5233 31.3135 17.8179 31.2535V34.3389ZM29.2678 32.5201C27.9972 33.1247 26.5365 33.6074 24.9429 33.9362V30.8519C26.5363 30.5235 27.9972 30.0413 29.2678 29.4371V32.5201ZM32.0679 30.7277C33.4469 29.5248 34.2703 28.1022 34.3352 26.5734V23.4269C34.3352 23.8382 34.253 24.2701 34.1296 24.6608C33.8012 25.7458 33.0864 26.7555 32.0679 27.6446V30.7277Z" fill="#81FEB7"/>
</svg>
